<svg xmlns="http://www.w3.org/2000/svg" xmlns:xlink="http://www.w3.org/1999/xlink" width="821.663" height="670.953" viewBox="0 0 821.663 670.953"><defs><linearGradient id="a" x1="-785.322" y1="3.522" x2="-783.676" y2="-32.11" gradientUnits="objectBoundingBox"><stop offset="0" stop-color="#b5b7bc"/><stop offset="0.482" stop-color="#afb2b7"/><stop offset="1" stop-color="#a3a6ab"/></linearGradient><linearGradient id="b" x1="-913.157" y1="1.091" x2="-911.245" y2="0.012" xlink:href="#a"/><linearGradient id="c" x1="-1366.475" y1="15.129" x2="-1433.704" y2="0.433" gradientUnits="objectBoundingBox"><stop offset="0" stop-color="#bec0c4"/><stop offset="0.369" stop-color="#c4c6ca"/><stop offset="1" stop-color="#cbcdd0"/></linearGradient><linearGradient id="d" x1="-2534.188" y1="12.116" x2="-2430.52" y2="-2.167" xlink:href="#a"/><linearGradient id="e" x1="-30.525" y1="0.973" x2="-29.276" y2="-0.195" xlink:href="#a"/><linearGradient id="f" x1="-20.34" y1="1.047" x2="-21.39" y2="-0.015" xlink:href="#c"/><linearGradient id="g" x1="-270.57" y1="-0.121" x2="-259.86" y2="-15.231" xlink:href="#a"/><clipPath id="h"><path d="M2116.885-1074.4l-.353-124.352,182.519-105.377.352,124.352Z" transform="translate(-2116.532 1304.129)" fill="none"/></clipPath><linearGradient id="i" x1="-18.58" y1="0.021" x2="-17.556" y2="0.994" xlink:href="#c"/><linearGradient id="j" x1="0" y1="0.5" x2="1" y2="0.5" xlink:href="#a"/></defs><g transform="translate(-140 -1244)"><g transform="translate(140 1244)"><g transform="translate(6.966 327.005)" opacity="0.3"><path d="M733.16,353.253a14.084,14.084,0,0,1,12.765.014L965.146,480.658c7.019,4.082,6.961,10.7-.1,14.779L623.512,692.619c-7.064,4.078-18.473,4.078-25.493,0L378.8,565.224c-3.51-2.041-3.51-5.355.024-7.4Z" transform="translate(-376.173 -351.73)" fill="#1f2633"/></g><g transform="translate(0)"><g style="isolation:isolate"><g transform="translate(354.294)"><path d="M493.058,260.79,486.7,257.1c-2.325-1.353-5.54-1.164-9.091.887l6.359,3.695C487.517,259.626,490.733,259.437,493.058,260.79Z" transform="translate(-477.608 -256.23)" fill="#fff"/></g><g transform="translate(0.717 474.588)"><path d="M376.211,398.93l6.362,3.695c-1.151-.664-1.859-2.082-1.863-4.1l-6.362-3.695C374.355,396.844,375.064,398.262,376.211,398.93Z" transform="translate(-374.348 -394.831)" fill="url(#a)"/></g><g transform="translate(0 221.044)"><path d="M380.5,324.481l-6.359-3.7.719,253.545,6.359,3.7Z" transform="translate(-374.139 -320.785)" fill="url(#b)"/></g><g transform="translate(12.766 1.751)"><path d="M725.754,260.437l-6.359-3.7L377.867,453.923l6.359,3.7Z" transform="translate(-377.867 -256.742)" fill="#fff"/></g><g transform="translate(0.001 198.931)"><path d="M393.263,318.025l-6.359-3.7c-7.067,4.082-12.789,13.994-12.765,22.113l6.358,3.695C380.474,332.016,386.2,322.1,393.263,318.025Z" transform="translate(-374.139 -314.327)" fill="#fff"/></g><g transform="translate(6.36 3.696)"><path d="M388.761,456.243c-7.067,4.078-12.789,13.991-12.765,22.11l.719,253.544c.01,4.061,2.88,5.7,6.434,3.647L737.465,530.978a14.051,14.051,0,0,0,6.372-11.039l-.719-253.544c-.024-8.119-5.763-11.413-12.83-7.335Z" transform="translate(-375.996 -257.31)" fill="#fff"/></g></g><g transform="translate(6.961 278.135)"><g style="isolation:isolate"><g transform="translate(588.899 136.274)"><path d="M553.491,384.611l-.02-7.355c.007,2.688-1.763,5.379-5.314,7.43l.02,7.355C551.727,389.99,553.5,387.3,553.491,384.611Z" transform="translate(-548.156 -377.256)" fill="url(#c)"/></g><g transform="translate(0.001 209.824)"><path d="M376.172,398.736l.021,7.355c0,1.325.876,2.65,2.619,3.664l-.02-7.355C377.049,401.386,376.175,400.061,376.172,398.736Z" transform="translate(-376.172 -398.736)" fill="url(#d)"/></g><g transform="translate(2.621 213.49)"><path d="M376.937,399.806l.021,7.355L596.175,534.556l-.021-7.355Z" transform="translate(-376.937 -399.806)" fill="url(#e)"/></g><g transform="translate(247.37 143.703)"><path d="M448.414,576.607l.021,7.355L789.963,386.781l-.021-7.355Z" transform="translate(-448.414 -379.426)" fill="url(#f)"/></g><g transform="translate(221.838 340.883)"><path d="M440.958,437.011l.02,7.355c7.019,4.082,18.466,4.082,25.534,0l-.024-7.355C459.424,441.093,447.977,441.093,440.958,437.011Z" transform="translate(-440.958 -437.011)" fill="url(#g)"/></g><path d="M378.834,543.564c-3.534,2.041-3.551,5.345-.041,7.383L598.009,678.341c7.019,4.082,18.466,4.082,25.53,0L965.07,481.162c7.064-4.081,7.084-10.7.062-14.779l-219.217-127.4a14.03,14.03,0,0,0-12.745,0Z" transform="translate(-376.172 -337.458)" fill="#fff"/></g></g><g transform="translate(6.36 3.696)"><g transform="translate(12.941 22.716)"><path d="M379.68,461.439l.672,236.886L722.283,500.911l-.672-236.886Z" transform="translate(-379.68 -264.025)" fill="#f0f2f4"/><g transform="translate(80.191 101.952)"><g transform="translate(0)" style="isolation:isolate"><g clip-path="url(#h)"><g transform="translate(0.353 49.1)"><path d="M2125.844-768.827l2.27-6.247,2.3,3.61-4.567,2.637m2.245-15.233-10.642,29.286,4.164-2.4,2.287-6.3,8.482-4.9,2.315,3.64,4.164-2.4-10.77-16.924" transform="translate(-2117.447 935.403)"/><path d="M2201.1-825.964l-3.89,2.246.033,11.559-12.27-4.406.059,20.978,3.891-2.246-.033-11.562,12.27,4.409-.059-20.978" transform="translate(-2158.946 961.157)"/><path d="M2261.456-862.774l-3.891,2.246-5.24,10.5-5.206-4.469-3.891,2.246,7.163,7.029.028,9.829,3.891-2.246-.033-9.826,7.178-15.309" transform="translate(-2194.751 983.78)"/><path d="M2504.6-1003.2l-.35.2-8.832,5.1c-5.062,2.922-9.15,10-9.134,15.821s4.132,8.164,9.194,5.242l9.178-5.3-.036-12.738-9.523,5.5.013,4.414,5.679-3.279.011,3.91-5.333,3.079c-2.938,1.7-5.331.333-5.34-3.046a11.7,11.7,0,0,1,5.305-9.189l9.178-5.3-.012-4.414" transform="translate(-2344.13 1070.083)"/><path d="M2383.783-930.931l-10.156,5.863a11.65,11.65,0,0,0-5.278,9.142l.025,8.941c.012,3.358,2.39,4.713,5.313,3.031l10.155-5.863-.012-4.224-10.156,5.863c-.9.517-1.621.1-1.627-.927l-.007-2.358,9.929-5.733-.012-4.221-9.929,5.733-.007-2.361a3.563,3.563,0,0,1,1.616-2.8v0l10.156-5.863-.012-4.227" transform="translate(-2271.647 1025.668)"/><path d="M2566.243-1036.275l-10.155,5.863a11.652,11.652,0,0,0-5.278,9.143l.026,8.941c.012,3.358,2.389,4.713,5.313,3.03l10.156-5.863-.012-4.224-10.156,5.863c-.9.517-1.624.1-1.627-.927l-.006-2.358,9.927-5.731-.012-4.221-9.926,5.731-.007-2.361a3.562,3.562,0,0,1,1.616-2.8v0l10.156-5.863-.012-4.227" transform="translate(-2383.784 1090.41)"/><path d="M2322.08-897.841l-3.891,2.246.024,8.3-10.549,6.091-.023-8.3-3.89,2.246.06,21.063,3.89-2.246-.024-8.3,10.549-6.091.023,8.307,3.891-2.246-.06-21.066" transform="translate(-2231.945 1005.331)"/><path d="M2429.362-935.933l-.039-13.541,5.249-3.031c3.253-1.872,5.9-.366,5.913,3.368a12.97,12.97,0,0,1-5.875,10.173l-5.249,3.03m5.224-20.378-9.164,5.291.06,21.063,9.164-5.291.018-.011a18.451,18.451,0,0,0,6.418-6.809c.182-.315.365-.633.52-.932a18,18,0,0,0,2.156-8.087c-.031-5.782-4.136-8.1-9.173-5.195l-.023.014.024-.043" transform="translate(-2306.723 1042.018)"/><path d="M2427.866-1126.929l-58.037,33.508,11.437,9.727,46.6-43.235" transform="translate(-2272.557 1146.125)" fill="#26de81"/><path d="M2388.988-1136.429l-11.08,21.5-8.08,15.674,58.037-33.508-38.877-3.661" transform="translate(-2272.557 1151.964)" fill="#20b265"/><path d="M2369.441-1176.735l.085,30.2,8.144,6.831,11.08-21.5-19.309-15.534" transform="translate(-2272.319 1176.735)" fill="#187f47"/><path d="M2233.447-1098.149l-46.6,43.236,58.039-33.509-11.437-9.727" transform="translate(-2160.098 1128.437)" fill="#26de81"/><path d="M2244.885-1072.91l-58.039,33.509,38.877,3.659,11.082-21.5h0l8.079-15.671" transform="translate(-2160.098 1112.926)" fill="#20b265"/><path d="M2298.8-1032.251l-11.083,21.5,19.312,15.533-.086-30.2-8.143-6.831h0" transform="translate(-2222.092 1087.937)" fill="#187f47"/></g></g></g></g></g><g style="isolation:isolate"><g transform="translate(180.736 107.022)"><path d="M431.573,288.952a6.156,6.156,0,0,0-2.794,4.838c0,1.767,1.274,2.469,2.811,1.582a6.121,6.121,0,0,0,2.794-4.818C434.381,288.767,433.128,288.055,431.573,288.952Z" transform="translate(-428.779 -288.565)"/></g><path d="M730.268,259.067c7.067-4.078,12.827-.818,12.851,7.3l.719,253.544a14.085,14.085,0,0,1-6.372,11.063L383.129,735.55c-3.534,2.041-6.4.38-6.413-3.677L376,478.328c-.024-8.122,5.681-18,12.745-22.079ZM389.282,714.6,731.213,517.189,730.542,280.3,388.611,477.719l.671,236.885M559.527,364.719a6.156,6.156,0,0,0-2.794,4.838c0,1.767,1.274,2.469,2.811,1.582a6.121,6.121,0,0,0,2.794-4.818c0-1.787-1.257-2.5-2.811-1.6" transform="translate(-375.996 -257.31)" fill="url(#i)"/></g></g><g transform="translate(6.967 278.129)"><g transform="translate(49.819 28.86)"><g transform="translate(233.131 135.123)"><path d="M460.652,453.861c-2.459,1.421-2.452,3.715-.031,5.123l48.513,28.194a9.729,9.729,0,0,0,8.844,0l116.845-67.462c2.438-1.407,2.469-3.7.028-5.123L586.339,386.4a9.793,9.793,0,0,0-8.845,0Z" transform="translate(-458.807 -385.347)" fill="#464853"/></g><path d="M395.056,520.619c-5.759,3.328-5.773,8.7-.068,12.019l103.419,60.1c5.7,3.315,14.987,3.325,20.747,0L817.5,420.49c5.742-3.315,5.773-8.7.068-12.019l-103.419-60.1c-5.7-3.315-15-3.315-20.747,0Z" transform="translate(-390.722 -345.885)" fill="#464853"/></g><path d="M733.16,338.982a14.073,14.073,0,0,1,12.765.01l219.221,127.4c7.019,4.078,6.961,10.7-.1,14.779L623.512,678.345c-7.064,4.082-18.473,4.082-25.493,0L378.8,550.95c-3.51-2.037-3.51-5.352.024-7.393ZM533.676,613.17c5.7,3.315,14.987,3.325,20.747,0L852.765,440.922c5.742-3.315,5.773-8.7.068-12.019L749.414,368.8c-5.7-3.315-15-3.315-20.747,0L430.325,541.051c-5.759,3.325-5.773,8.7-.069,12.019l103.419,60.1m175.775-9.9a9.729,9.729,0,0,0,8.844,0l116.842-67.462c2.441-1.407,2.472-3.7.031-5.122l-48.513-28.191a9.792,9.792,0,0,0-8.845,0L660.969,569.954c-2.458,1.421-2.452,3.715-.031,5.123l48.513,28.194" transform="translate(-376.173 -337.456)" fill="#fff"/><path d="M733.16,338.982a14.073,14.073,0,0,1,12.765.01l219.221,127.4c7.019,4.078,6.961,10.7-.1,14.779L623.512,678.345c-7.064,4.082-18.473,4.082-25.493,0L378.8,550.95c-3.51-2.037-3.51-5.352.024-7.393ZM533.676,613.17c5.7,3.315,14.987,3.325,20.747,0L852.765,440.922c5.742-3.315,5.773-8.7.068-12.019L749.414,368.8c-5.7-3.315-15-3.315-20.747,0L430.325,541.051c-5.759,3.325-5.773,8.7-.069,12.019l103.419,60.1m175.775-9.9a9.729,9.729,0,0,0,8.844,0l116.842-67.462c2.441-1.407,2.472-3.7.031-5.122l-48.513-28.191a9.792,9.792,0,0,0-8.845,0L660.969,569.954c-2.458,1.421-2.452,3.715-.031,5.123l48.513,28.194" transform="translate(-376.173 -337.456)" fill="#fff"/></g></g></g><g transform="translate(510.221 1300.272)"><path d="M1232.742,3466.23l-2.583,9.408a13.216,13.216,0,0,0,1.311,3.161q.875,1.653,1.619,3.046a49.472,49.472,0,0,1-.231-8.289A62.384,62.384,0,0,0,1232.742,3466.23Z" transform="translate(-1065.609 -3251.675)" fill="#454b56"/><path d="M1255.917,3454.866c-.059.5-.109.966-.155,1.388l.077-.077a.069.069,0,0,0,.078-.077q3.392-2.546,5.86-10.025l.155-.462q.385-1.08.693-2.159a4.688,4.688,0,0,1,3.663,1.657c.015-.044.027-.082.039-.115q.23-.617.385-1.156l-.154-.116c-.113-.083-.229-.174-.347-.27q-1.956-1.442-4.743-3.548-6.245-4.7-12.724-4.7h-1.31q-1.466.693-1.851.848a10.371,10.371,0,0,0-3.239,2.777q-1.373,1.755-2.506,3.431a3.267,3.267,0,0,1,2.044.425q2.775,1.619,3.393,7.017a13.946,13.946,0,0,0,1.7,6.053c0-.095,0-.184,0-.269a15.466,15.466,0,0,0-.231-3.855,19.892,19.892,0,0,1-.309-3.7,5.072,5.072,0,0,1,2.7-3.7q2.391-1.62,6.631.385,4.243,1.928,2.391,4.7A11.653,11.653,0,0,0,1255.917,3454.866Z" transform="translate(-1069.852 -3238.075)" fill="#454b56"/><path d="M1503.659,3351.354q1.543,10.565,5.476,12.955a.865.865,0,0,0,.077-.386,58.675,58.675,0,0,1,4.241-18.121,104.385,104.385,0,0,1,7.9-15.653q1.025-1.681,2.12-3.316a10.789,10.789,0,0,0,.926-1.388c.052-.1.1-.206.155-.309l-.771-5.784-6.864-2.159a7.137,7.137,0,0,1-.385-.926,9.636,9.636,0,0,1-.694-1.773.3.3,0,0,0-.233-.309.857.857,0,0,0-.076-.385,47.251,47.251,0,0,1-2.39-8.559q-4.7-2.7-4.859-10.1a27.663,27.663,0,0,1,3.856-14.459,11.389,11.389,0,0,0-3.162,5.591q-.54,2.852-1.851,8.482-1.079,5.165-1.542,8.79a115.564,115.564,0,0,1-1.157,17.119,155.046,155.046,0,0,0-1.465,16.5q0,.15.154,3.509Q1503.3,3344.218,1503.659,3351.354Z" transform="translate(-1185.189 -3170.342)" fill="#454b56"/><path d="M1122.126,4081.9a7.289,7.289,0,0,0,3.007-1.966,2.581,2.581,0,0,0,.617-1.658v-.308a4.888,4.888,0,0,0-.848-.927l-3.007-1.464h-.154a2.521,2.521,0,0,0-.617-.078,1.952,1.952,0,0,0-.771,0h-.077q-.925.078-1.851.232c-.275.039-.559.077-.848.115q.01,3.734.27,7.249A17.348,17.348,0,0,0,1122.126,4081.9Z" transform="translate(-1016.26 -3518.721)" fill="#454b56"/><path d="M1115.419,4124.5l20.281-.154q6.9-.461,10.719-3.433a12.452,12.452,0,0,0,1.233-1.117q3.855-4.011,5.089-5.244a8.741,8.741,0,0,0-.924-1.466.914.914,0,0,0-.155-.23q-1.773-2.545-6.632-3.007l-16.117-1.929a9.9,9.9,0,0,1-1.272-.193,16.241,16.241,0,0,1-2.815-.81c-.435-.172-.91-.38-1.427-.617q-.982-.436-2.159-1.041a.389.389,0,0,1-.116-.039l-.693-.309v.309c0,.337-.013.685-.038,1.041a18.133,18.133,0,0,1-1.2,4.974,32.865,32.865,0,0,1-2.467,4.935q-3.548,6.092-3.547,6.246Q1113.183,4123.494,1115.419,4124.5Z" transform="translate(-1014.335 -3531.63)" fill="#454b56"/><path d="M1395.523,3459.464q-.771-.231-1.464-.462-1.157-9.562-1.157-12.8.181-8.773.27-15.036.025-2.978.038-5.4v-2.236q0-3.317-3.393-6.247-4.087-3.393-4.626-4.935a20.081,20.081,0,0,1-.849-6.4q.154-4.164.154-5.552v-.463a5.532,5.532,0,0,1,.695-.231l2-.848.771-.308q-.309,2.313-.694,4.087-1.542,6.4,4.164,9.716a49.382,49.382,0,0,1,4.241,2.621,5.253,5.253,0,0,1,2.006,4.165q0,1.063-.116,4.125-.118,2.852-.347,7.442-.1,2.26-.231,4.934Q1396.217,3450.211,1395.523,3459.464Zm15.577,3.394a3.534,3.534,0,0,0-.694-.078h-.386q0-2.467-.231-5.706-.231-5.322-.231-6.478,0-4.7,1.157-15.037.35-2.861.694-5.089.985-6.635,1.85-7.789l12.57-.308q2.313-2.931,2.622-8.945a21.01,21.01,0,0,1,1.773,1.157l.695.309q.486.27,1,.54c.071.05.148.1.231.153a26.845,26.845,0,0,1-1.774,5.321q-5.089,10.873-17.12,4.858-.191,2.15-.385,4.7Q1411.989,3442.31,1411.1,3462.858Zm30.229-44.032a3.605,3.605,0,0,0,.694.077q1.388.153,2.622.232a13.116,13.116,0,0,0,2,0q-.153.54-.307,1.233-3.217,10.473-4.82,17.7a62.476,62.476,0,0,0-1.581,10.14l-1.157-.231q-.154-1.387-.154-4.55,0-3.418.193-6.824a111.8,111.8,0,0,1,2.506-17.62Zm-15.346,204.5-2.158-1.234h2.158Zm16.195,9.484v.617l-.771-.617Z" transform="translate(-1133.193 -3222.007)" fill="#595e68" fill-rule="evenodd"/><path d="M1399.737,3148.179c.018.258.043.514.077.771l-.308.54a.589.589,0,0,1-.077.231.672.672,0,0,1-.078.308,38.2,38.2,0,0,1-7.711,12.338q-8.106,8.744-18.469,10.1a31.311,31.311,0,0,1-4.434.231,8.033,8.033,0,0,1-3.779-.848,12.738,12.738,0,0,1,1.388-.232q.539-.155,1-.308,1.712-.512,3.316-1.157,15.127-6.262,21.052-25.987,4.549-15.345,2.7-28.686-.606-1.59-1.118-3.123c.075.075.152.153.231.231q.274.248.578.5l4.935,5.86q.772,1.234,1.388,2.391a27.5,27.5,0,0,1,2.815,8.328q.163.949.269,1.927Q1398.362,3136.53,1399.737,3148.179Zm-55.291,19.587a26.506,26.506,0,0,1,2.621-.926,36.074,36.074,0,0,0,11.182.462q1.311-.149,2.583-.386.36.705.732,1.388a10.24,10.24,0,0,0,1.466,1.967,44.836,44.836,0,0,1-13.495-1.042c-.125-.029-.253-.054-.386-.077q-2.232-.542-4.473-1.311Zm-7.017,3.238q-.636.505-1.311,1.079-6.785,5.86-11.181,16.194-4.473,10.333-4.01,19.2c.017.5.043.973.077,1.426a69.851,69.851,0,0,0-1.311,15.615q.27,10.071,1.427,19.972a78.327,78.327,0,0,1-7.6,7.634,6.544,6.544,0,0,0-.848-2.236l-5.553-9.253q1.7-2.7,4.164-6.246,10.719-16.348,9.1-30.536a35.614,35.614,0,0,1-.078-9.717,53.026,53.026,0,0,1,2.237-10.564,10.4,10.4,0,0,1,.694-1.234,99.5,99.5,0,0,1,11.413-10.333l.964-.81Q1335.348,3171.463,1337.428,3171Zm79.582,23.9,6.864,1.311a2.53,2.53,0,0,1,.617.077h.231a28.634,28.634,0,0,0-9.253,10.1c-.1.172-.2.339-.309.5a11.378,11.378,0,0,0-3.162,5.591q-.54,2.852-1.851,8.482-1.079,5.165-1.542,8.79a115.541,115.541,0,0,1-1.157,17.119,155.061,155.061,0,0,0-1.465,16.5q0,.151.154,3.509.183,3.544.539,10.68,1.542,10.565,5.476,12.955v.618a45.232,45.232,0,0,1-4.4,1.619,24.6,24.6,0,0,1-6.093.926,13.118,13.118,0,0,1-2,0q-1.234-.077-2.622-.231a3.605,3.605,0,0,1-.694-.077,28.581,28.581,0,0,1-7.557-2.391q-.951-.5-1.851-1-.515-.269-1-.54l-.695-.309a21.029,21.029,0,0,0-1.773-1.156,65.854,65.854,0,0,1-5.938-4.549q-.708-.614-1.388-1.234a91.911,91.911,0,0,0-9.023-7.634,23.621,23.621,0,0,0-7.789-3.547,21.783,21.783,0,0,0-7.789-.463,30.593,30.593,0,0,0-7.633,2.082l-.116.039a36.989,36.989,0,0,0-5.436,2.275,35.435,35.435,0,0,1-6.015,1.156,36.842,36.842,0,0,1-5.321.077q-.077-.309-.154-.617-.771-2.93-1.389-5.783,11.106-8.636,31.231-8.637a33.978,33.978,0,0,1,13.881,2.545q5.783,2.544,6.941,2.544,12.107,0,19.664-15.114,5.012-10.025,7.171-24.521.618-7.171,5.244-19.51a49.892,49.892,0,0,1,6.4-12.415A9.071,9.071,0,0,0,1417.01,3194.909Zm.54,18.893a38.125,38.125,0,0,1,7.133,6.863q.631.746,1.271,1.542,2.446,3.113,4.589,6.4a88.051,88.051,0,0,1,4.974,8.56q.723,1.366,1.389,2.776a68.239,68.239,0,0,1,3.045,7.442,34.333,34.333,0,0,1,1.966,10.679q0,.771-.848,16.348-.57,3.464-1.119,6.477a18.565,18.565,0,0,0-6.9,7.018,19.8,19.8,0,0,0-2.2,5.552,27.285,27.285,0,0,1-.193-6.863q.617-6.709.694-6.786v-.386l-3.392-25.139-.386-2.93-.771-5.784-6.864-2.159a7.153,7.153,0,0,1-.385-.926,9.636,9.636,0,0,1-.694-1.773.3.3,0,0,0-.233-.309.864.864,0,0,0-.076-.385,47.245,47.245,0,0,1-2.39-8.559A33.459,33.459,0,0,1,1417.55,3213.8Zm-16.889-37.014q1.852-1.542,3.933-3.239.076-.077,2.314-1.966a.207.207,0,0,0,.077-.039q.694.617,1.311,1.234l.308.308,11.335,10.1a28.352,28.352,0,0,0,10.488,5.783h.154q.232.077,1,.308,1,.616,1.773,1.156-6.091-2.081-12.416-3.778a69.552,69.552,0,0,1-18.893-8.907Q1401.345,3177.271,1400.662,3176.788Zm55.445,361.155q-.073,2.214-.154,4.435a10.588,10.588,0,0,1-4.473,3.546,59.085,59.085,0,0,1-1.851-8.019q-.076-.508-.154-1.2-.711-5.53-2.236-22.9-.209-2.6-.463-5.476a.651.651,0,0,0,0-.115q-.888-10.233-1.966-17.7a107.167,107.167,0,0,0-2.275-12.068q-3.624-13.495-10.1-13.495a24.309,24.309,0,0,0-10.1,2.391,23.33,23.33,0,0,1-9.562,2.39,16.626,16.626,0,0,1-6.131-1.08q-.249-.118-.5-.231v-.076q-.472-1.5-.926-2.853a1.43,1.43,0,0,0-.078-.463,8.493,8.493,0,0,1,0-3.933q.174-.608.386-1.195a13.9,13.9,0,0,0,9.408,3.509q11.182,0,15.423-7.711a15.329,15.329,0,0,0,1.851-5.475,15.5,15.5,0,0,0,.231-2.7q0-.813-.039-1.62a22.936,22.936,0,0,1,6.284,1.465q8.1,3.085,14.189,20.435.463-.385,1.157,7.788.693,8.1,1,16.04.131,2.637.27,4.9.219,4.459.424,7.519.232,4.8.347,9.6.076,2.65.115,5.282Q1456.35,3528.455,1456.107,3537.943Zm58.221-276.485a2.207,2.207,0,0,1-1.156.539,68.878,68.878,0,0,1-7.094,1.08,64.061,64.061,0,0,0-6.71.925,32.843,32.843,0,0,0-5.4,1.7q-1.928,1-3.7,2.159-2.622,2.005-5.089,4.241-1.388,1.773-2.777,3.47a11.411,11.411,0,0,1-.616.964c-.027.042-.052.081-.077.115a21.877,21.877,0,0,0-2.391,4.627,13.765,13.765,0,0,0-1.234,4.4q-.308,2.776-.617,5.706a10.553,10.553,0,0,0-1.62-1.311,4.445,4.445,0,0,0-1.156-.848,24.443,24.443,0,0,0-4.087-2.7,14.716,14.716,0,0,1-2.93-12.57c.053-.127.1-.256.154-.385q.286-.605.617-1.157a10.047,10.047,0,0,1,8.482-5.165,5.035,5.035,0,0,0,1.542-.077c.36-.1.694-.206,1-.308a.858.858,0,0,0,.309-.155.864.864,0,0,1,.232-.155,32.753,32.753,0,0,0,3.161-1.08,25.225,25.225,0,0,0,3.162-1.233,24.492,24.492,0,0,1,2.545-.848,2.55,2.55,0,0,0,.617-.154l6.786-2.159a.658.658,0,0,0,.617,0A35.977,35.977,0,0,1,1514.328,3261.458ZM1480.167,3293a1.634,1.634,0,0,1,.231.115q-1.229,1.564-2.468,3.123-1.619,1.85-3.084,3.625-.772.849-1.542,1.774-1.62,1.928-3.162,4.01-8.483,11.643-15.808,11.952-7.4.308-15.963-4.472-.849-.541-1.7-1.157a10.687,10.687,0,0,1-3.239-3.855c-.051-.1-.1-.206-.154-.309a.583.583,0,0,1,.154,0q7.2-1.021,10.256-3.008,2.7-2.313,4.319-3.547a24.766,24.766,0,0,1,7.634-4.01q5.629-3.837,9.177-6.13a11.348,11.348,0,0,0,5.706,3.663,10.8,10.8,0,0,0,8.482-1A12.37,12.37,0,0,0,1480.167,3293Zm17.967-24.137.077.077a.754.754,0,0,1,.463.309,4.206,4.206,0,0,1,.848.462,35.082,35.082,0,0,0,4.782,2.237.245.245,0,0,0,.231.155l.154-.078,7.017,2.545a77.482,77.482,0,0,1,8.328,2.313,17.421,17.421,0,0,1,7.019,4.935,11.63,11.63,0,0,1,.771,2.623,1.515,1.515,0,0,1,.231,1c0,.1-.026.129-.077.077a1.661,1.661,0,0,1-.309.926c-.154.206-.309.411-.462.617q-.386-.539-.771-1a52.1,52.1,0,0,0-5.09-5.012,9.867,9.867,0,0,0-3.856-2q-2.005-.616-4.164-1.311a27.22,27.22,0,0,0-3.856-1.08,36.45,36.45,0,0,1-10.257-4.163,5.845,5.845,0,0,1-2.236-2.7l.308-.463A4.793,4.793,0,0,1,1498.134,3268.86Zm20.9,15.577a39.355,39.355,0,0,0,4.858,1.234,29.86,29.86,0,0,0-5.551-2.082,11.762,11.762,0,0,1-2.005-.463,2.91,2.91,0,0,1-.926-.154,2.722,2.722,0,0,1-.924,0,4.423,4.423,0,0,0-2.16.078l4.241.848A19.566,19.566,0,0,1,1519.032,3284.437Zm8.175,2.7a11.584,11.584,0,0,1,2.391,3.7.1.1,0,0,1,0,.154,18.192,18.192,0,0,1-7.017-1.234q-2.7-1.079-5.707-2.082a42.549,42.549,0,0,1-3.933-1.7,3.925,3.925,0,0,1-2.314-2.313,1.886,1.886,0,0,1,.848-.694,5.394,5.394,0,0,1,3.624-.462,39,39,0,0,1,9.794,3.546Zm-15.5,4.241q1.928.925,3.779,1.619l2.544.385.926,2.391a7.66,7.66,0,0,1-5.862.617,7.087,7.087,0,0,1-5.244-3.008,13.264,13.264,0,0,1,.231-1.388l.771-.926Zm-3.547,8.1a11.363,11.363,0,0,1-2.93,2.93q-1.466-.231-2.853-.463a5.622,5.622,0,0,1-3.316-1.928l-.386-.849a2.923,2.923,0,0,1,2.7-1.079A29.432,29.432,0,0,1,1508.16,3299.474Zm-115.9-78.114a11.486,11.486,0,1,0,.925,8.867A11.275,11.275,0,0,0,1392.257,3221.36Zm2.776-.309a15.314,15.314,0,0,1,1.08,11.8,13.926,13.926,0,0,1-18.585,9.1,15.627,15.627,0,0,1-8.714-8.1,16,16,0,0,1-1.081-11.875,14,14,0,0,1,18.662-9.022A15.658,15.658,0,0,1,1395.033,3221.051Zm-98.861,24.6a19.6,19.6,0,0,1,3.7,1.233,20.567,20.567,0,0,1,7.018,5.629,14,14,0,0,0,1.233,1.388c.021.021.046.047.078.077a2.994,2.994,0,0,0,.385.463q-4.242,23.906-20.513,44.031-.772,1.079-1.619,2.082-.627.67-1.273,1.349a16,16,0,0,0,.732-2.12c-.042-.151-.081-.306-.116-.462a11.021,11.021,0,0,0,.347-1.927,9.858,9.858,0,0,0-2.313-7.48,10.921,10.921,0,0,0-2.12-1.966q.612-1.79,1.118-3.2,4.625-12.147,9.254-26.757.537-1.722,1.08-3.47Q1294.552,3249.735,1296.172,3245.649Zm34.354,179.016q-1.455-3.364-2.738-7.21,7.789-8.328,20.049-4.55a19.683,19.683,0,0,0,.155-2.93q0-18.738-3.547-30.228a53.162,53.162,0,0,0-7.789-15.422q-.772-1.063-1.465-2.043-5.037-7.122-6.323-10.372-3.549-8.1-3.624-20.9a45.516,45.516,0,0,1,2.737-4.973,24.167,24.167,0,0,0-.423,5.744q.385,9.717,6.092,20.667,5.783,10.872,13.726,16.733,6.9,5.073,11.8,3.548l-12.184-9.022q-.647-.828-1.311-1.7c.283.034.554.072.809.116q4.971.577,5.9.578.621,0,1.233-.038a20.58,20.58,0,0,0,4.087-.695,27.346,27.346,0,0,0,7.558-3.508,47.946,47.946,0,0,0,8.328-7.018l.54-.578q5.11-5.533,9.87-11.682,15.114-7.326,23.905-7.789a26.831,26.831,0,0,1-1.234,2.815q-3.818-.783-9.485,1.5-8.791,3.623-16.734,12.492-8.019,8.867-10.719,18.043-2.419,8.4,1.079,12.338c-.052.2-.1.408-.153.617q-3.779,16.656-3.779,21.283a81.1,81.1,0,0,0,2.39,19.433q2.469,9.638,2.469,13.726a9.912,9.912,0,0,1-.579,3.393,10.318,10.318,0,0,1-1.658,3.008q-3.49,4.588-11.413,5.321-.72-13.3-5.784-20.2-4.395-5.861-10.872-5.783a14,14,0,0,0-10.256,4.549Q1330.835,3424.291,1330.526,3424.665Zm99.362.424v.386a17.215,17.215,0,0,1-.771,5.051,21.415,21.415,0,0,0-2.391-3.817,16.535,16.535,0,0,0-12.724-6.4,18.621,18.621,0,0,0-12.646,4.087q-5.707,4.549-5.707,10.95a33.324,33.324,0,0,0,1.388,8.983,19.518,19.518,0,0,1-5.244-5.822.962.962,0,0,0-.231-.385l-.154-.309a4.748,4.748,0,0,0-.54-.848,4.228,4.228,0,0,0-.386-.848q-.771-1.543-1.388-3.162a.314.314,0,0,0-.077-.231,86.156,86.156,0,0,1-3.084-11.336q-1.542-7.171-2.083-8.637-9.709-23.919-11.335-32.733a17.137,17.137,0,0,1-.308-2.891q0-7.251,6.786-17.043a49.853,49.853,0,0,1,17.2-15.884,48.339,48.339,0,0,1,5.244-3.47,13.881,13.881,0,0,1-2.235,2.93q-4.165,4.4-6.479,7.248-9.485,11.027-9.485,21.977a45.031,45.031,0,0,0,.616,6.863,143.411,143.411,0,0,0,4.55,19.124q2.776,9.253,7.248,23.751a41.312,41.312,0,0,0,4.164-5.321,10.324,10.324,0,0,1,7.866-3.625q12.646,0,20.512,9.254Q1429.117,3424.01,1429.888,3425.089Zm-67.321,108.805q.119-2.079,3.547-14.5,1-3.707,2.313-8.328,3.152-10.926,4.627-17.736a47.087,47.087,0,0,0,1.311-8.867,29.17,29.17,0,0,0-2.391-10.256,20.579,20.579,0,0,0-2.891-5.282,8.044,8.044,0,0,0-5.823-3.315,3.665,3.665,0,0,0-.54-.039,32.338,32.338,0,0,0-6.863,1.542,40.068,40.068,0,0,1-6.169,1.388,52.436,52.436,0,0,1-10.256-.849,2.071,2.071,0,0,0-.154-.771l-.54-3.7v-.154a7.124,7.124,0,0,1,.347-2.16,10.112,10.112,0,0,0,5.206,1.08q6.948-.346,10.449-4.742a21.985,21.985,0,0,0,2.506-.578,18.254,18.254,0,0,0,11.413-8.792c.17-.295.337-.591.5-.886l.27.115a3.449,3.449,0,0,1,1.08.463,8.6,8.6,0,0,1,1.85,1.156.224.224,0,0,1,.154.077c.052.052.1.1.154.155a1.215,1.215,0,0,1,.309.231,6.22,6.22,0,0,1,1.041.81l.038.039.155.153q6.319,6.1,6.632,20.32v1.426q0,2.012-.038,3.779a40.066,40.066,0,0,1-1.041,9.1q-1.314,4.754-2.392,11.028-.574,3.3-1.079,7.018a64.176,64.176,0,0,1-2.39,8.328,58.09,58.09,0,0,0-2.467,12.3q-.083,1.051-.154,2.121-.385,7.942-8.1,8.328h-.617Zm113.049,43.8a55.141,55.141,0,0,1,1,5.475q-.116.943-.309,1.851A18.719,18.719,0,0,1,1475,3588.8a20.129,20.129,0,0,1-2.044,3.316,23.7,23.7,0,0,1-2.891,3.162,27.007,27.007,0,0,1-12.184,6.169c-.1.03-.208.056-.309.077a6.453,6.453,0,0,1-5.089-1.272,10.173,10.173,0,0,1-1.465-1.35,26.611,26.611,0,0,1-3.7-6.4q-2.047-6.067-2.583-16.772-.014-.594-.038-1.2-.055-1.835-.115-3.509-.306-7.215-.887-11.566-.24-1.86-.539-3.2l-.232-1.156q.7.27,1.389.5,2.9,4.975,7.712,4.974,6.245,0,8.559-4.318a9.091,9.091,0,0,0,1.08-3.008q.077-.771.076-1.464a26.945,26.945,0,0,0-.654-6.247,84.75,84.75,0,0,1,6.9,11.8,19.015,19.015,0,0,1-1.31,1.466l-.078.076q-5.089,4.7-16.04,6.246a55.8,55.8,0,0,0-.231,6.015q0,1.616.115,3.239.132,2.436.5,4.9.3,2.135.771,4.28,2.545,11.566,8.328,11.567,4.5,0,8.868-5.475a37.712,37.712,0,0,0,2.275-3.239,66.071,66.071,0,0,0,3.778-7.21Q1475.283,3578.463,1475.617,3577.694Zm-102.331-46.807a20.1,20.1,0,0,1,3.393,2.005,32.026,32.026,0,0,1,4.974,6.631,3.8,3.8,0,0,1,.5,2.237c-.023.113-.049.229-.077.347a14.268,14.268,0,0,1-2.313,4.9,18.4,18.4,0,0,1-6.478,5.127,37.028,37.028,0,0,1-9.639,3.046c-.387.071-.759.135-1.118.192q-4.279.807-6.941,1.428-.732.154-1.35.307a30.648,30.648,0,0,0-8.714,3.162q-4.319,2.615-8.135,4.511-2.394,1.2-4.589,2.121-1.426.6-2.776,1.08a40.532,40.532,0,0,1-17.12,2.159,5.528,5.528,0,0,1-3.625-1.851,19.518,19.518,0,0,1-1.619-2.082c-.07-.127-.148-.256-.231-.386-.206-.308-.411-.642-.618-1h.04q.513.123,1.04.232c.2.042.41.08.617.115a30.615,30.615,0,0,0,5.553.5,42.629,42.629,0,0,0,13.147-2.082,49.759,49.759,0,0,0,10.6-4.935q10.241-6.164,14.922-8.752a36.966,36.966,0,0,1,3.509-1.812,22.486,22.486,0,0,1-7.48-4.7,8.7,8.7,0,0,1-2.237-4.2,6.3,6.3,0,0,1-.076-.964v-.076q0-1.416.076-2.313,1.157-.617,2.237-1.08,1.62-.694,3.393-1.465c.033-.02.072-.047.115-.077q.011.352.038.693.487,5.448,3.046,8.212a8.546,8.546,0,0,0,3.741,2.275c.035.01.073.024.115.038q6.393,1.937,10.218-1.736a10.852,10.852,0,0,0,2.005-2.852q.308-.772.539-1.542a33.388,33.388,0,0,0,.926-3.778A23.22,23.22,0,0,0,1373.287,3530.887Z" transform="translate(-1088.207 -3096.562)" fill="#b0b5be" fill-rule="evenodd" style="isolation:isolate"/><path d="M1279.842,3088.161q12.467-2.513,22.017,7.942a18.9,18.9,0,0,1,5.244,14.42,41.9,41.9,0,0,0-3.779-7.635q-3.854-5.936-7.48-8.4-6.167-4.187-17.5-5.514-.576-.056-1.156-.116Q1278.537,3088.44,1279.842,3088.161Zm31.926,38.016a18.272,18.272,0,0,1-.579,4.087,14.389,14.389,0,0,1-4.164,7.171q-2.522,2.385-5.051,2.12a5.08,5.08,0,0,1-.655-.115,4.844,4.844,0,0,1-2.776-2.082q-1.375-11.649,3.778-16.579-.107-.977-.269-1.928,2.635-2.255,5.2-1.542,2.854.694,4.009,4.472A14.576,14.576,0,0,1,1311.768,3126.177Zm-116.79,108.651a29.709,29.709,0,0,0-11.1-1.388,1.434,1.434,0,0,0-.232.039l6.4-12.222q9.484-.462,15.885,8.56l5.553,9.253-4.551,4.009a14,14,0,0,1-1.233-1.388,20.564,20.564,0,0,0-7.018-5.629A19.618,19.618,0,0,0,1194.978,3234.828Zm41.256-74.645a14.178,14.178,0,0,1,6.864-3.123,1.045,1.045,0,0,1,.154-.115l.231.076q2.241.769,4.473,1.311c.133.023.261.048.386.077a44.836,44.836,0,0,0,13.495,1.042,7.865,7.865,0,0,0,1.928,1.581,8.033,8.033,0,0,0,3.779.848,31.312,31.312,0,0,0,4.434-.232q.1,1.278.346,4.01,2.16,5.167,11.259,5.167,6.555,0,15.808-4.936l.077.077q.682.483,1.388.964a69.538,69.538,0,0,0,18.893,8.907q6.323,1.7,12.416,3.778,1.85,1.544,3.624,3.085a62.885,62.885,0,0,1,7.172,6.979,16.507,16.507,0,0,0-3.239-2.429,14.854,14.854,0,0,0-10.8-1.465l-.039.038a49.654,49.654,0,0,0-6.633,6.825,35.781,35.781,0,0,0-5.9,10.333,33.458,33.458,0,0,0-1.389,17.659q-4.7-2.7-4.858-10.1a27.659,27.659,0,0,1,3.856-14.459c.106-.163.208-.33.309-.5a28.64,28.64,0,0,1,9.254-10.1h-.231a2.529,2.529,0,0,0-.617-.077l-6.864-1.311a51.864,51.864,0,0,1-12.261-4.935,94.652,94.652,0,0,0-12.068-5.976c-.267-.122-.538-.238-.809-.347a10.5,10.5,0,0,0-10.333,1.156,4.989,4.989,0,0,1-2.467.771,9.4,9.4,0,0,1-4.357-.269q-3.425-1.11-5.437-5.283a6.925,6.925,0,0,0-5.86-4.241,20.97,20.97,0,0,1-6.71,0q-1.4-.2-2.813-.424-.656-.118-1.312-.231-7-1.183-14.151-2.969-13.739,18.248-17.427,36.744c-.034-.453-.059-.929-.077-1.426q-.463-8.868,4.01-19.2,4.4-10.333,11.181-16.194Q1235.6,3160.688,1236.234,3160.183ZM1307.8,3121.4a3.9,3.9,0,0,0-3.7,1.312,10,10,0,0,0-2.7,4.858,9.478,9.478,0,0,0-.077,5.475q.693,2.544,2.544,3.007,1.851.54,3.856-1.233a10.9,10.9,0,0,0,2.7-4.858,10.433,10.433,0,0,0,.077-5.475A4.267,4.267,0,0,0,1307.8,3121.4Zm42.491,413.707a10.593,10.593,0,0,0,4.473-3.547q.081-2.22.154-4.434a9.964,9.964,0,0,1,2.469,2.2,12.807,12.807,0,0,1,1.927,3.509,17.834,17.834,0,0,1,.579,1.889,26.942,26.942,0,0,1,.654,6.247q0,.694-.076,1.464a9.082,9.082,0,0,1-1.08,3.008q-2.314,4.318-8.559,4.318-4.807,0-7.712-4.974a21.4,21.4,0,0,1-1.156-2.429,22.26,22.26,0,0,1-1.928-8.251v-.5q.565.458,1.158.887a9.136,9.136,0,0,0,6.631,1.466A8.3,8.3,0,0,0,1350.287,3535.1Zm25.987-254.547q1.334.772,2.7,1.619a12.292,12.292,0,0,1-1.157.771,10.8,10.8,0,0,1-8.482,1,11.344,11.344,0,0,1-5.707-3.663,13.814,13.814,0,0,1-1.234-1.812,11.083,11.083,0,0,1-1.234-8.637,10.441,10.441,0,0,1,5.09-6.862c.13-.077.259-.155.385-.232-.051.129-.1.259-.154.385a14.716,14.716,0,0,0,2.93,12.57,24.454,24.454,0,0,1,4.087,2.7,4.437,4.437,0,0,1,1.156.848A10.531,10.531,0,0,1,1376.274,3280.556Zm-44.534,15.615a19.69,19.69,0,0,1-1.889-4.9,18.873,18.873,0,0,1-.193-8.636,19.808,19.808,0,0,1,2.2-5.552,18.567,18.567,0,0,1,6.9-7.018,20.376,20.376,0,0,1,4.434-1.85,18.434,18.434,0,0,1,7.866-.54,47.465,47.465,0,0,0-12.8,4.55q-3.47,1.927-6.555,13.572Q1330.156,3291.841,1331.74,3296.171Zm-166.49-14.42a10.23,10.23,0,0,1,15.269-4.627,10.908,10.908,0,0,1,2.12,1.966,9.858,9.858,0,0,1,2.314,7.48,11.031,11.031,0,0,1-.347,1.928q-3.485-11.576-14.381-8.02-3.383,1.41-5.283,2.237A9.312,9.312,0,0,1,1165.25,3281.751Zm79.235,69.44q.663.867,1.311,1.7l12.184,9.022q-4.9,1.525-11.8-3.548-7.944-5.859-13.726-16.732-5.708-10.95-6.092-20.667a24.156,24.156,0,0,1,.423-5.744,12.057,12.057,0,0,1,1.427-3.895q.014.8.077,1.62.872,16.541,13.572,34.622Q1243.195,3349.461,1244.485,3351.19Zm65.971-24.367q-4.24-.332-10.218,3.084a48.327,48.327,0,0,0-5.244,3.47,49.855,49.855,0,0,0-17.2,15.884q-6.787,9.794-6.786,17.043a17.137,17.137,0,0,0,.308,2.891,6.977,6.977,0,0,1-1.079-.81,7.353,7.353,0,0,1-.618-.617q-3.5-3.942-1.079-12.338,2.7-9.175,10.719-18.043,7.943-8.868,16.734-12.492,5.667-2.287,9.485-1.5a7.74,7.74,0,0,1,3.624,1.812A7.639,7.639,0,0,1,1310.457,3326.823Zm-42.49,109.307c-.164.295-.331.591-.5.886a18.254,18.254,0,0,1-11.413,8.791,22.045,22.045,0,0,1-2.506.579q-3.5,4.4-10.449,4.742a10.107,10.107,0,0,1-5.206-1.08q-5.162-2.6-8.675-11.412-.677-1.763-1.235-3.431a54.674,54.674,0,0,1-1.619-6.092,36.171,36.171,0,0,1-.617-4.973,14.083,14.083,0,0,1,3.392-10.064q.091-.112.193-.231.309-.374.656-.733a14,14,0,0,1,10.256-4.549q6.476-.078,10.872,5.783,5.064,6.9,5.784,20.2,7.923-.733,11.413-5.321a10.319,10.319,0,0,0,1.658-3.008A18.206,18.206,0,0,1,1267.966,3436.13Zm59.957-16.425q3.051,6.153,3.277,15.384.038.806.039,1.619a15.478,15.478,0,0,1-.231,2.7,15.321,15.321,0,0,1-1.851,5.475q-4.242,7.711-15.423,7.711a13.9,13.9,0,0,1-9.408-3.509,25.247,25.247,0,0,1-6.478-9.832,59.979,59.979,0,0,1-2.005-5.745,33.32,33.32,0,0,1-1.388-8.983q0-6.4,5.707-10.95a18.62,18.62,0,0,1,12.646-4.087,16.536,16.536,0,0,1,12.724,6.4A21.4,21.4,0,0,1,1327.923,3419.7Zm-88.45-4.974a10.7,10.7,0,0,0-7.557,3.392q-.185.2-.347.386a10.713,10.713,0,0,0-2.738,7.789,26.076,26.076,0,0,0,.694,4.626,44.254,44.254,0,0,0,1.928,5.938c.059.146.123.287.192.424q3.352,7.958,8.6,8.675a7.1,7.1,0,0,0,1.465.077,13.045,13.045,0,0,0,3.123-.54,8.987,8.987,0,0,0,5.976-5.552,11.093,11.093,0,0,0,.848-4.087,10.167,10.167,0,0,0,.116-1.234q-.009-.351-.038-.694-.065-1.2-.193-2.352-.8-8.2-4.048-12.608a10.884,10.884,0,0,0-4.281-3.508A9.529,9.529,0,0,0,1239.473,3414.731Zm41.41,116.555a4.384,4.384,0,0,1,.771,2.738,14.033,14.033,0,0,1-2.39,5.244,17.062,17.062,0,0,1-4.241,3.855,30.836,30.836,0,0,1-9.716,3.856q-1.037.251-2.159.462-2.582.472-4.627.887-2.956.583-4.782,1.04a30.648,30.648,0,0,0-8.714,3.162q-2.945,1.782-5.668,3.238a72.6,72.6,0,0,1-9.832,4.474q-.912.3-1.812.578a39.672,39.672,0,0,1-15.307,1.581,5.533,5.533,0,0,1-3.624-1.852,18.815,18.815,0,0,1-2.468-3.547q.051-.83.154-1.62a19.528,19.528,0,0,0,1.619,2.082,5.53,5.53,0,0,0,3.625,1.851,40.536,40.536,0,0,0,17.12-2.159q1.349-.482,2.776-1.08,2.195-.917,4.589-2.121,3.816-1.9,8.135-4.511a30.638,30.638,0,0,1,8.714-3.162c.412-.1.862-.2,1.35-.308q2.661-.62,6.941-1.427c.359-.057.731-.121,1.118-.192a37.007,37.007,0,0,0,9.639-3.047,18.393,18.393,0,0,0,6.478-5.127A14.264,14.264,0,0,0,1280.883,3531.285Zm-19.51-8.212h.617q7.712-.385,8.1-8.328.072-1.07.155-2.121a10.255,10.255,0,0,1,.925,1.812,14.517,14.517,0,0,1,.926,4.9q.005.366,0,.732a23.208,23.208,0,0,1-.386,3.625,33.373,33.373,0,0,1-.926,3.778q-.23.77-.539,1.542a10.849,10.849,0,0,1-2.005,2.852q-3.825,3.673-10.218,1.736c-.042-.014-.08-.028-.115-.038a8.544,8.544,0,0,1-3.741-2.275q-2.559-2.765-3.047-8.212-.028-.342-.038-.694a23.873,23.873,0,0,1,.656-8.4q.109-.348.231-.695.426,1.7.771,3.161Q1254.279,3523,1261.374,3523.073Zm40.871-102.482a9.878,9.878,0,0,0-4.164,7.942,24.235,24.235,0,0,0,1.08,6.747,40.313,40.313,0,0,0,1.388,3.972,17.958,17.958,0,0,0,4.974,7.364,10.035,10.035,0,0,0,6.593,2.352q8.174,0,11.259-5.629a12.663,12.663,0,0,0,1.311-3.932,13.257,13.257,0,0,0,.154-2.005q0-1.073-.038-2.082a29.68,29.68,0,0,0-1.234-7.441,17.4,17.4,0,0,0-2.892-5.591,12.36,12.36,0,0,0-3.509-3.085,12.13,12.13,0,0,0-5.745-1.619,13.806,13.806,0,0,0-8.482,2.506Q1302.591,3420.323,1302.245,3420.591Zm-212.721,236.927,3.586,1.5v.309q0,.5-.038,1.041a18.137,18.137,0,0,1-1.2,4.974,32.863,32.863,0,0,1-2.467,4.935q-3.548,6.092-3.547,6.246,0,1.078,2.237,2.082l20.281-.154q6.9-.462,10.719-3.432a12.47,12.47,0,0,0,1.233-1.118q3.855-4.01,5.089-5.244a.853.853,0,0,0,.078.386,6.793,6.793,0,0,1,.308,2.93,13.13,13.13,0,0,1-.386,1.774,6.837,6.837,0,0,1-2,2.853,27.3,27.3,0,0,1-9.6,5.475q-1,.332-2.043.617c-.341.093-.688.183-1.042.27a42.715,42.715,0,0,1-4.434.81q-.8.145-1.774.271-3.488.444-9.215.617-2.073.081-4.434.116-4.319.231-7.943.462a.688.688,0,0,1-.309.077,24.281,24.281,0,0,1-4.164.54l-4.627.849a37.631,37.631,0,0,1-5.012.848q-1.465.231-2.7.308a32.237,32.237,0,0,1-6.44-.116,20.784,20.784,0,0,1-5.822-1.581,4.2,4.2,0,0,1-2.544-2.853v-.077c-.07-.25-.133-.533-.193-.848a22.431,22.431,0,0,1-.269-3.085,33.876,33.876,0,0,1,1.233-8.521q1.682,4.229,4.318,5.359a3.106,3.106,0,0,0,.386.155l.155.077a21.86,21.86,0,0,0,5.167.617q15.5,0,24.368-11.336a39.52,39.52,0,0,0,3.162-4.7l.385-.772Q1089.749,3658.86,1089.524,3657.518Zm285.593-83.32q.184,1.16.308,2.237a20.227,20.227,0,0,1-.424,2.313,18.426,18.426,0,0,1-1.388,3.7,21.842,21.842,0,0,1-4.743,6.092,27.073,27.073,0,0,1-7.557,4.742,30.2,30.2,0,0,1-4.936,1.5q-3.624.616-6.555-2.622a13.018,13.018,0,0,1-1.118-1.5,32.516,32.516,0,0,1-2.352-4.435c-.083-.148-.159-.3-.231-.462q-.308-.91-.578-1.927a75.2,75.2,0,0,1-2.043-16.039q-.046-1.542-.116-2.969-.091-2.549-.231-4.742a72.032,72.032,0,0,0-1.2-10.564l-.232-1.156q.389.149.771.27.582,4.352.887,11.566.062,1.673.116,3.509.024.6.038,1.2.536,10.7,2.583,16.772a26.6,26.6,0,0,0,3.7,6.4,10.166,10.166,0,0,0,1.465,1.35,6.453,6.453,0,0,0,5.089,1.272c.1-.021.2-.047.309-.077a27.007,27.007,0,0,0,12.184-6.169,23.694,23.694,0,0,0,2.891-3.162,20.129,20.129,0,0,0,2.044-3.316A18.729,18.729,0,0,0,1375.117,3574.2Z" transform="translate(-987.013 -3085.741)" fill="#595e68" fill-rule="evenodd"/><path d="M1429.949,3301.564a11.487,11.487,0,1,1-6.864-5.707A11.191,11.191,0,0,1,1429.949,3301.564Zm-53.9,53.593a36.974,36.974,0,0,1,5.437-2.275,3.9,3.9,0,0,0-.81.424l-.771.308-2,.848a5.5,5.5,0,0,0-.695.231v.039Q1376.652,3354.922,1376.046,3355.156Zm2.314,150.6a9.528,9.528,0,0,1,3.739.733,10.884,10.884,0,0,1,4.281,3.508q3.253,4.406,4.048,12.608.126,1.149.193,2.352c.019.229.032.46.038.694a10.2,10.2,0,0,1-.116,1.234,11.1,11.1,0,0,1-.848,4.087,8.987,8.987,0,0,1-5.976,5.552,13.034,13.034,0,0,1-3.123.54,7.066,7.066,0,0,1-1.465-.077q-5.249-.716-8.6-8.675c-.069-.137-.133-.278-.192-.424a44.29,44.29,0,0,1-1.928-5.938,26.075,26.075,0,0,1-.694-4.627,10.712,10.712,0,0,1,2.738-7.788q.163-.188.347-.386A10.7,10.7,0,0,1,1378.359,3505.756Zm62.771,5.861q.347-.269.694-.5a13.807,13.807,0,0,1,8.482-2.506,12.126,12.126,0,0,1,5.745,1.619,12.361,12.361,0,0,1,3.509,3.084,17.406,17.406,0,0,1,2.892,5.591,29.693,29.693,0,0,1,1.234,7.441q.038,1.01.038,2.082a13.263,13.263,0,0,1-.154,2.005,12.663,12.663,0,0,1-1.311,3.932q-3.084,5.631-11.259,5.629a10.034,10.034,0,0,1-6.593-2.352,17.958,17.958,0,0,1-4.974-7.364,40.376,40.376,0,0,1-1.388-3.972,24.238,24.238,0,0,1-1.08-6.747A9.878,9.878,0,0,1,1441.13,3511.617Z" transform="translate(-1125.899 -3176.767)" fill="#f1f2ff" fill-rule="evenodd"/><path d="M1003.076,3303.226h.153a44.66,44.66,0,0,1,4.627.347q1.057.149,2.16.347a6.879,6.879,0,0,1-.078.771,19.412,19.412,0,0,0-4.7,1.388,8.494,8.494,0,0,0-1.62,1.157,3.384,3.384,0,0,0-.462,1.156,1.439,1.439,0,0,0,0,.232,1.986,1.986,0,0,0,0,.424,5.94,5.94,0,0,0,.926,2.969,18.5,18.5,0,0,0,2.313,2.853,30.523,30.523,0,0,0,5.784,4.011,30.089,30.089,0,0,0,6.477,2.776q2.005.538,4.01,1a39.558,39.558,0,0,0,6.863.771q1.774,0,3.7-.078,3.47-.077,6.941,0,1.928,0,3.855.078a53.508,53.508,0,0,1,6.4,1l-.193-.54c.111.021.226.048.347.078a20.042,20.042,0,0,1,3.856,1.542q2.082,1.156,3.084,1.85a15.057,15.057,0,0,1,4.28,5.282c.044.067.083.131.116.193q-.461-.028-.925-.04-1-.071-1.966-.115-12.845-.778-17.853-.848-7.711-.231-10.718-.617a70.267,70.267,0,0,1-15.423-3.084,33.9,33.9,0,0,1-13.418-7.942,34.559,34.559,0,0,1-4.241-5.4,11.989,11.989,0,0,1-1.851-6.477,4.859,4.859,0,0,1,.347-1.31,5.62,5.62,0,0,1,2.43-2.622A10.511,10.511,0,0,1,1003.076,3303.226Zm234.5-139.072a10.236,10.236,0,0,1-1.465-1.967q-.372-.683-.732-1.388a46.4,46.4,0,0,1-2.97-7.48q-1.157-4.009-2.236-7.942-.617-2.236-1-4.473a54.406,54.406,0,0,1-.809-5.822l.038.193q2.469.231,4.7.462a74.541,74.541,0,0,0,16.194-.848q3.121-.512,6.092-1.311a4.607,4.607,0,0,0,1.234-.848,18.042,18.042,0,0,0,1.928-2.237q-2.469-1.542-13.727-1.773h-1.156q-7.369-.017-10.95-.231l-3.085-.155v-.078a8.219,8.219,0,0,1-1.235-.231q-.077.925-.153,1.928.153-3.547.462-7.017.146-1.308.347-2.623.381-2.826.964-5.629a32.935,32.935,0,0,1,3.239-8.868,14.089,14.089,0,0,1,5.051-5.244q.534-.325,1.118-.616a7.961,7.961,0,0,1,1.157-.54q1.078-.387,1.928-.771a.5.5,0,0,1,.115,0,31.266,31.266,0,0,1,16.541,2.468,32.058,32.058,0,0,1,8.637,5.089l.039.039q.512,1.534,1.118,3.123,1.85,13.341-2.7,28.685-5.925,19.726-21.052,25.987-1.6.646-3.316,1.157-.463.154-1,.308a12.913,12.913,0,0,0-1.388.231A7.865,7.865,0,0,1,1237.58,3164.155Zm-55.908,70.364q-6.4-9.023-15.885-8.56a11.554,11.554,0,0,0-1.928-.308,298.326,298.326,0,0,0,18.2-28.146,111.771,111.771,0,0,1,15.731-21.283,10.4,10.4,0,0,0-.694,1.234,53.008,53.008,0,0,0-2.237,10.564,35.6,35.6,0,0,0,.078,9.717q1.618,14.188-9.1,30.536Q1183.369,3231.819,1181.672,3234.519Zm110.428-26.835a35.78,35.78,0,0,1,5.9-10.333,49.655,49.655,0,0,1,6.633-6.825l.039-.038a14.853,14.853,0,0,1,10.8,1.466,16.5,16.5,0,0,1,3.239,2.429q8.12,7.7,11.875,29.341.664,3.862,1.234,7.519,3.7,23.347,4.01,39.019l7.172-3.972q-.332.552-.617,1.156c-.126.078-.255.155-.385.232a10.441,10.441,0,0,0-5.09,6.863,11.082,11.082,0,0,0,1.234,8.636,13.809,13.809,0,0,0,1.234,1.812q-3.549,2.292-9.177,6.13a24.748,24.748,0,0,0-7.634,4.01q-1.619,1.233-4.319,3.547-3.054,1.987-10.256,3.008a.628.628,0,0,0-.155,0q-.183-.4-.347-.809-1.585-4.331-.039-10.372,3.084-11.644,6.555-13.572a47.467,47.467,0,0,1,12.8-4.55,18.43,18.43,0,0,0-7.866.54,20.391,20.391,0,0,0-4.434,1.85q.548-3.012,1.119-6.476.848-15.577.848-16.348a34.334,34.334,0,0,0-1.967-10.68,68.181,68.181,0,0,0-3.045-7.442q-.665-1.409-1.388-2.776a88.159,88.159,0,0,0-4.974-8.56q-2.144-3.286-4.589-6.4-.639-.8-1.271-1.542A38.131,38.131,0,0,0,1292.1,3207.684Zm-.54-18.893a9.177,9.177,0,0,1-1-.231,49.881,49.881,0,0,0-6.4,12.415q-4.626,12.338-5.244,19.51-2.158,14.5-7.171,24.521-7.556,15.114-19.664,15.114-1.156,0-6.94-2.545a33.982,33.982,0,0,0-13.881-2.545q-20.125,0-31.231,8.637a221.472,221.472,0,0,1-4.356-25.292q-1.158-9.9-1.427-19.973a69.867,69.867,0,0,1,1.311-15.615q3.688-18.5,17.427-36.744,7.147,1.787,14.151,2.969.656.113,1.312.231,1.41.221,2.813.424a20.971,20.971,0,0,0,6.71,0,6.925,6.925,0,0,1,5.86,4.241q2.014,4.173,5.438,5.283a9.4,9.4,0,0,0,4.357.269,4.989,4.989,0,0,0,2.467-.771,10.5,10.5,0,0,1,10.333-1.156c.271.109.542.225.809.347a94.711,94.711,0,0,1,12.069,5.976A51.879,51.879,0,0,0,1291.56,3188.791Zm-8.021-62.692a4.265,4.265,0,0,1,2.7,3.085,10.43,10.43,0,0,1-.077,5.475,10.9,10.9,0,0,1-2.7,4.859q-2,1.773-3.856,1.233-1.85-.463-2.544-3.007a9.475,9.475,0,0,1,.077-5.475,10,10,0,0,1,2.7-4.858A3.9,3.9,0,0,1,1283.539,3126.1Zm99.17,167.257a29.4,29.4,0,0,0-6.786-1.388,2.923,2.923,0,0,0-2.7,1.079l.386.849a5.619,5.619,0,0,0,3.316,1.928q1.388.231,2.853.463l-2.16,1.311a16.822,16.822,0,0,1-5.166-1.08,12.237,12.237,0,0,0-2.313-.771,8.083,8.083,0,0,1-2.314-1.156q-1.388-.849-2.545-1.619-2-1.233-3.933-2.313-3.162-1.773-6.324-3.625l-.077-.038a1.616,1.616,0,0,0-.231-.116q-1.365-.848-2.7-1.619.308-2.93.617-5.707a13.761,13.761,0,0,1,1.234-4.4,21.887,21.887,0,0,1,2.391-4.627c.025-.034.05-.073.077-.115q.338-.476.616-.964,1.388-1.7,2.777-3.47,2.468-2.237,5.089-4.241,1.773-1.156,3.7-2.159a32.825,32.825,0,0,1,5.4-1.7,64.008,64.008,0,0,1,6.71-.925,68.8,68.8,0,0,0,7.094-1.08,2.2,2.2,0,0,0,1.156-.54q.772.154.308.848l-2.7,3.007a6.758,6.758,0,0,1-2,.771,25.1,25.1,0,0,1-4.781,1.234q-3.392.771-7.017,1.542a4.767,4.767,0,0,0-.849.463l-.308.463a5.845,5.845,0,0,0,2.236,2.7,36.455,36.455,0,0,0,10.257,4.163,27.246,27.246,0,0,1,3.856,1.08q2.158.694,4.164,1.311a9.864,9.864,0,0,1,3.856,2,52.039,52.039,0,0,1,5.09,5.012q.386.464.771,1v.078l-2.313-1.08a39.039,39.039,0,0,0-9.794-3.546,5.4,5.4,0,0,0-3.624.462,1.885,1.885,0,0,0-.848.695,3.925,3.925,0,0,0,2.314,2.313,42.581,42.581,0,0,0,3.933,1.7q3.006,1,5.707,2.082a18.2,18.2,0,0,0,7.017,1.234,4.06,4.06,0,0,1-.155,3.778,4.9,4.9,0,0,1-.54.463,8.566,8.566,0,0,1-3.7-.925,30.333,30.333,0,0,0-9.485-3.161q-1.62-.232-3.7-.618a1.885,1.885,0,0,0-.694-.153h-1.156q.694.461,1.542,1l-2.853-.309-.771.926a13.312,13.312,0,0,0-.231,1.388,7.087,7.087,0,0,0,5.244,3.008,7.661,7.661,0,0,0,5.861-.616v2a2.461,2.461,0,0,1-2.7,1.773,32.915,32.915,0,0,1-7.172-1.464Zm-143.125,37.862h.386a3.5,3.5,0,0,1,.694.078,50.773,50.773,0,0,0,19.819-2.083q7.711-2.545,15.037-5.784a1.94,1.94,0,0,1,.462-.231,2.719,2.719,0,0,0,1.774-2.391v-.077q.309-2.545.385-5.167-.4-2.464-.617-4.819a23.777,23.777,0,0,1,4.55,4.279,7.032,7.032,0,0,1,1.7,4.164,16.278,16.278,0,0,1-1.312,6.092q-8.791.463-23.905,7.789-4.759,6.149-9.87,11.682l-.54.578a47.933,47.933,0,0,1-8.328,7.018,27.348,27.348,0,0,1-7.558,3.508,20.6,20.6,0,0,1-4.087.695q-.612.037-1.234.038-.928,0-5.9-.578c-.255-.044-.526-.082-.809-.116q-1.291-1.73-2.622-3.625-12.7-18.081-13.572-34.623-.062-.82-.077-1.62v-.848q0-6.786,4.164-10.255.468-.389,1-.772.1,5.984.463,11.953v.155a6.024,6.024,0,0,0,.848,2.776.58.58,0,0,1,.078.231,15.486,15.486,0,0,0,2.16,2.7.87.87,0,0,1,.307.309,17.987,17.987,0,0,0,5.4,3.239q2.623,1,5.244,1.928.693.23,1.464.462a101.7,101.7,0,0,0,14.189,3.315Zm30-116.285a15.658,15.658,0,0,0-8.637-8.1,14,14,0,0,0-18.662,9.022,16,16,0,0,0,1.081,11.875,15.626,15.626,0,0,0,8.714,8.1,13.926,13.926,0,0,0,18.585-9.1A15.312,15.312,0,0,0,1269.582,3214.932Zm-113.319,66.895a10.364,10.364,0,0,0-15.269,4.627l12.84-46.769q-.077,0,0-.231a2.593,2.593,0,0,1,.925-.462,24.526,24.526,0,0,1,4.627-.81,1.484,1.484,0,0,1,.231-.039,29.72,29.72,0,0,1,11.1,1.388q-1.619,4.087-3.007,8.868-.542,1.747-1.079,3.47-4.63,14.61-9.254,26.757Q1156.876,3280.036,1156.263,3281.827Zm129.938,49.7q4.537.334,7.056,5.012a33.251,33.251,0,0,1,3.161,9.947,55.2,55.2,0,0,0,1.7,8.02q.231,3.239,3.393,29.612,2.854,26.14,2.93,34.854-.772-1.078-1.7-2.159-7.866-9.253-20.512-9.253a10.322,10.322,0,0,0-7.866,3.625,41.315,41.315,0,0,1-4.164,5.321q-4.472-14.5-7.248-23.751a143.41,143.41,0,0,1-4.551-19.124,45.027,45.027,0,0,1-.616-6.862q0-10.95,9.485-21.978,2.314-2.852,6.478-7.248a13.856,13.856,0,0,0,2.235-2.93Q1281.962,3331.195,1286.2,3331.526Zm-86.406-6.632q.077,12.8,3.625,20.9,1.286,3.25,6.323,10.372.694.981,1.465,2.043a53.167,53.167,0,0,1,7.789,15.422q3.547,11.49,3.547,30.228a19.687,19.687,0,0,1-.155,2.93q-12.26-3.779-20.049,4.55a102.1,102.1,0,0,1-2.853-10.255,180.87,180.87,0,0,1-4.318-26.913q-.516-5.43-.733-9.254-.116-2.5-.115-4.318,0-2.314.694-12.107.694-10.333,1.157-12.878A38.808,38.808,0,0,1,1199.794,3324.894Zm37.323,202.882q-7.1-.077-8.637-6.632-.345-1.463-.771-3.161-.131-.531-.271-1.079-.608-2.451-1.35-5.321-1.061-4.054-2.39-8.946-3.085-11.643-6.786-27.528-.815-3.538-1.427-6.4-1.118-5-1.657-7.943a2.073,2.073,0,0,1,.154.771,52.437,52.437,0,0,0,10.256.849,40.1,40.1,0,0,0,6.169-1.389,32.336,32.336,0,0,1,6.863-1.542,3.664,3.664,0,0,1,.54.039,8.045,8.045,0,0,1,5.823,3.316,20.579,20.579,0,0,1,2.891,5.282,29.17,29.17,0,0,1,2.391,10.256,47.1,47.1,0,0,1-1.311,8.868q-1.475,6.809-4.627,17.736-1.31,4.621-2.314,8.329Q1237.236,3525.7,1237.117,3527.776Zm78.656,10.525a17.909,17.909,0,0,1-2.7-2.968,96.229,96.229,0,0,1-8.637-15.385q-.843-1.929-1.62-3.893-2.622-6.864-5.474-13.726-2.335-5.711-4.743-11.375-1.314-3.155-2.66-6.284c-.1-.225-.2-.443-.309-.655q-3.382-7.554-6.555-15.23a57.408,57.408,0,0,1-2.391-6.479c.167.075.335.152.5.232a16.626,16.626,0,0,0,6.13,1.079,23.322,23.322,0,0,0,9.563-2.39,24.309,24.309,0,0,1,10.1-2.391q6.476,0,10.1,13.495a107.134,107.134,0,0,1,2.275,12.067q1.078,7.464,1.966,17.7a.646.646,0,0,1,0,.115q.254,2.871.463,5.476,1.524,17.372,2.236,22.9.079.688.154,1.2a59.094,59.094,0,0,0,1.851,8.019,8.309,8.309,0,0,1-2.468.849,9.136,9.136,0,0,1-6.631-1.466Q1316.338,3538.761,1315.774,3538.3Zm-175.9-230.18c0-.1,0-.184,0-.27a15.466,15.466,0,0,0-.231-3.855,19.908,19.908,0,0,1-.309-3.7,5.073,5.073,0,0,1,2.7-3.7q2.391-1.619,6.632.385,4.242,1.928,2.39,4.7a11.658,11.658,0,0,0-2.235,5.552c-.059.5-.109.965-.154,1.388q-.285,2.191-.464,3.085-.847,2.622-4.009,2.622-3.24,0-4.164-2.545A19.109,19.109,0,0,1,1139.875,3308.122ZM1181.4,3558.7l-.04-.077a18.693,18.693,0,0,1,.964-4.935,16.552,16.552,0,0,1,3.277-5.475l.271-.309a22.671,22.671,0,0,1,3.239-2.892,39.116,39.116,0,0,1,5.591-3.509q.848-.386,10.95-5.012c.071-.031.149-.07.233-.115q4.5-2,15.19-6.67-.073.9-.076,2.314v.076a6.307,6.307,0,0,0,.076.964,8.7,8.7,0,0,0,2.237,4.2,22.475,22.475,0,0,0,7.48,4.7,37.117,37.117,0,0,0-3.509,1.813q-4.682,2.588-14.922,8.752a49.791,49.791,0,0,1-10.6,4.935,42.645,42.645,0,0,1-13.148,2.082,30.661,30.661,0,0,1-5.553-.5c-.207-.036-.413-.074-.617-.116Q1181.917,3558.822,1181.4,3558.7Zm161.129-7.48a90.757,90.757,0,0,1,4.241,9.562,96.666,96.666,0,0,1,3.394,10.8q-.334.77-.655,1.5a66.116,66.116,0,0,1-3.778,7.21,37.789,37.789,0,0,1-2.275,3.239q-4.372,5.475-8.868,5.475-5.784,0-8.328-11.567-.471-2.144-.771-4.28-.369-2.459-.5-4.9-.115-1.623-.115-3.239a55.806,55.806,0,0,1,.231-6.015q10.95-1.542,16.039-6.246c.03-.028.055-.054.078-.076A19.012,19.012,0,0,0,1342.532,3551.218Z" transform="translate(-962.757 -3090.444)" fill="#fff" fill-rule="evenodd"/><path d="M1307.673,3118.615a23.511,23.511,0,0,1-2.237,4.665q-.45.717-.963,1.388a14.587,14.587,0,0,0-.5-4.4q-1.157-3.779-4.009-4.473-2.569-.713-5.2,1.542a27.5,27.5,0,0,0-2.815-8.328q-.617-1.157-1.388-2.391l-4.935-5.861q-.305-.253-.578-.5c-.079-.078-.156-.155-.231-.231l-.039-.039a32.051,32.051,0,0,0-8.637-5.089,31.266,31.266,0,0,0-16.541-2.468q.448-.451.926-.849c.062-.049.126-.1.193-.154a43.444,43.444,0,0,1,9.1-4.087h.077q.581.06,1.156.116,11.336,1.329,17.5,5.515,3.625,2.466,7.48,8.4a41.92,41.92,0,0,1,3.78,7.635,18.9,18.9,0,0,0-5.244-14.42q-9.551-10.456-22.017-7.943a25.5,25.5,0,0,1,12.3-2.391,25.7,25.7,0,0,1,24.291,26.912A26.64,26.64,0,0,1,1307.673,3118.615Zm-12.184,23.9,2.931,16.733q-2.238,1.89-2.313,1.966-2.083,1.7-3.933,3.239l-.077-.077q-9.253,4.936-15.808,4.936-9.1,0-11.259-5.167-.248-2.733-.346-4.01,10.363-1.356,18.469-10.1a38.19,38.19,0,0,0,7.711-12.338.673.673,0,0,0,.078-.308.593.593,0,0,0,.077-.231l.308-.54q-.05-.385-.077-.771a4.843,4.843,0,0,0,2.776,2.082,5,5,0,0,0,.655.115Zm-251.663,538.358a26.9,26.9,0,0,1-4.048-.616,10.321,10.321,0,0,1-3.624-1.7,2.05,2.05,0,0,1-.694-.462l-.694-.771a10.293,10.293,0,0,1-.309-1.542,25.833,25.833,0,0,1-.231-4.7q.174-2.233.27-3.971a6.95,6.95,0,0,0,1.272.963,9.9,9.9,0,0,0,1.851.848l2.005.309a16.7,16.7,0,0,0,5.09-.231.137.137,0,0,0,0,.077c.025.069.052.132.076.192a33.881,33.881,0,0,0-1.233,8.521A22.449,22.449,0,0,0,1043.826,3680.879Zm41.989-23.365-3.586-1.5q-.618-3.583-.925-7.4a17.363,17.363,0,0,0,4.28-1.194,7.291,7.291,0,0,0,3.007-1.967,2.577,2.577,0,0,0,.617-1.658v-.231a2.942,2.942,0,0,1,.385.463,7.436,7.436,0,0,1,1,6.709l-.155.385a21.355,21.355,0,0,1-3.162,5.938q-.317.411-.656.81a.425.425,0,0,1-.116-.039Z" transform="translate(-979.719 -3084.233)" fill="#454b56" fill-rule="evenodd"/><path d="M1441.173,3417.029a24.608,24.608,0,0,0,6.093-.926q-5.929,10.274-4.781,24.1.212,2.355.617,4.819-.077,2.622-.385,5.167v.077a2.719,2.719,0,0,1-1.774,2.391,1.94,1.94,0,0,0-.462.231q-7.325,3.238-15.037,5.784a50.769,50.769,0,0,1-19.819,2.083q.888-20.548,1.774-32.387.194-2.554.385-4.7,12.03,6.015,17.12-4.858a26.837,26.837,0,0,0,1.774-5.321c-.083-.052-.161-.1-.231-.153q.9.5,1.851,1a28.59,28.59,0,0,0,7.557,2.39v.155a111.808,111.808,0,0,0-2.506,17.62q-.194,3.406-.193,6.824,0,3.161.154,4.549l1.157.232a62.491,62.491,0,0,1,1.581-10.141q1.6-7.225,4.82-17.7Q1441.019,3417.568,1441.173,3417.029Zm-58.683-20.589a3.912,3.912,0,0,1,.809-.424l.116-.039a30.592,30.592,0,0,1,7.634-2.082,21.783,21.783,0,0,1,7.789.463,23.61,23.61,0,0,1,7.789,3.548,91.92,91.92,0,0,1,9.023,7.633q.68.62,1.388,1.234a65.876,65.876,0,0,0,5.938,4.55q-.308,6.015-2.622,8.945l-12.57.308q-.864,1.153-1.85,7.789-.344,2.228-.694,5.089-1.157,10.333-1.157,15.037,0,1.156.231,6.477.233,3.238.231,5.706h-.308a101.62,101.62,0,0,1-14.189-3.316q.7-9.253,1.465-23.828.133-2.675.231-4.934.23-4.59.347-7.442.116-3.063.116-4.125a5.253,5.253,0,0,0-2.006-4.165,49.482,49.482,0,0,0-4.241-2.621q-5.707-3.316-4.164-9.717Q1382.181,3398.753,1382.49,3396.439Zm6.092,60.456q-2.623-.927-5.244-1.928a17.994,17.994,0,0,1-5.4-3.239.866.866,0,0,0-.307-.309,15.5,15.5,0,0,1-2.16-2.7.577.577,0,0,0-.078-.23,6.031,6.031,0,0,1-.848-2.776v-.154q-.36-5.967-.463-11.953-.026-1.019-.039-2.043-.038-1.942-.039-3.894l-2.159-28.223a35.46,35.46,0,0,0,6.015-1.156q.607-.234,1.156-.425v.425q0,1.388-.154,5.552a20.082,20.082,0,0,0,.849,6.4q.539,1.541,4.626,4.935,3.392,2.93,3.393,6.247v2.236q-.014,2.419-.038,5.4-.09,6.263-.27,15.036Q1387.425,3447.334,1388.582,3456.9Z" transform="translate(-1127.716 -3219.9)" fill="#454b56" fill-rule="evenodd"/><path d="M1409.879,3153.073q.078-1,.153-1.927a8.241,8.241,0,0,0,1.234.23v.078l3.085.154q3.582.215,10.95.232h1.156q11.258.231,13.727,1.773a18.024,18.024,0,0,1-1.928,2.237,4.609,4.609,0,0,1-1.234.848,62.255,62.255,0,0,1-6.092,1.311,74.526,74.526,0,0,1-16.194.848q-2.236-.231-4.7-.462c-.012-.061-.025-.125-.038-.193-.011-.188-.024-.381-.038-.579Z" transform="translate(-1144.386 -3113.563)" fill="#26de81" fill-rule="evenodd"/><path d="M1019.375,3428.96a6.806,6.806,0,0,0,.694-3.238h-.078a6.887,6.887,0,0,0,.078-.771,11.944,11.944,0,0,0-1.62-4.589c.13.067.259.131.385.193q1.929.849,4.087,1.619a2.329,2.329,0,0,0,1.156.154l3.7.618a12.863,12.863,0,0,0,3.161-.116,24.993,24.993,0,0,0,3.663,2.274q.429.234.887.463,5.784.925,11.953,8.173.343.378.732.81.452.555.964,1.2a6.3,6.3,0,0,1-3.624,1.85q-4.7.54-6.323.771a20.542,20.542,0,0,1-10.179-1.079,26.927,26.927,0,0,1-8.868-5.4A2.925,2.925,0,0,1,1019.375,3428.96Zm44.264-39.481q-3.459,9.472-8.329,9.716l.926-3.008a25.12,25.12,0,0,0,0-3.933,5.185,5.185,0,0,0-1.619-3.315q-1.388-1.156-2.853-2.544.771-.849,3.315-3.625a13.1,13.1,0,0,0,2.93-4.241q.38-1.519.771-4.01,1.116,1.7,1.542,2.237a.445.445,0,0,0,.154.308l.155.308q1.928,3.471,3.008,11.181v.155a2,2,0,0,0,.077.616Zm-10.565,20.665a4.3,4.3,0,0,0-.54,1.851,3.181,3.181,0,0,0,.462,1.466c.1.159.191.314.271.462q.608.934.848,1.312a.529.529,0,0,0,.039.077,1.769,1.769,0,0,1-.27.308,2.823,2.823,0,0,1-.809.463,3.23,3.23,0,0,1-1.928-1.928,3.521,3.521,0,0,1-.116-1q-.038-.479-.038-1.157a8.923,8.923,0,0,1,.154-2.159,2.07,2.07,0,0,1,2.236-1.156A2.234,2.234,0,0,1,1053.073,3410.145Zm89.067,5.706a2.756,2.756,0,0,1,.655-.193,3.271,3.271,0,0,1,2.044.425q2.776,1.619,3.392,7.017a13.948,13.948,0,0,0,1.7,6.053,19.1,19.1,0,0,0,.155,3.663q.924,2.545,4.164,2.545,3.161,0,4.009-2.622.179-.894.463-3.084l.077-.077a.069.069,0,0,0,.078-.077q3.392-2.545,5.86-10.024l.155-.462a5.886,5.886,0,0,1,.231,1.7q0,.153-2.776,8.4-.41.894-.849,1.7a15.185,15.185,0,0,1-3.971,5.051,6.81,6.81,0,0,1-4.2,1.5q-6.015,0-9.177-9.948a41.182,41.182,0,0,1-1.927-9.677q-.077-.927-.077-1.812Zm30.036,34.392-.039.077a57.84,57.84,0,0,1-11.72,9.755,22.051,22.051,0,0,1,1.464-4.743q-6.169-8.636-17.273-5.167-.458.956-1.041,2.275-.46-.939-.886-1.966-1.312-4.241-1.928-6.632-.154-.617-.309-1.311a2.364,2.364,0,0,1,.232-.193v-.039a12.571,12.571,0,0,1,8.791-3.393,16.123,16.123,0,0,1,4.819.695,13.428,13.428,0,0,1,2.584,1.079,23.364,23.364,0,0,0,4.4,2.391,45.7,45.7,0,0,1,6.863-13.187,30.262,30.262,0,0,1,2.39-6.169,8.433,8.433,0,0,1,.54-.848,17.946,17.946,0,0,1,.231,1.85,28.507,28.507,0,0,0,1.7,7.4,29.9,29.9,0,0,1,1.619,7.4q-.386,1.389-1.157,5.476A36.386,36.386,0,0,1,1172.177,3450.243Z" transform="translate(-972.81 -3211.475)" fill="#fd9f6c" fill-rule="evenodd"/><path d="M1082.9,3430.3a9.283,9.283,0,0,1-2.738.771,5.959,5.959,0,0,1-3.625-.656,2.519,2.519,0,0,1-.385-.193,4.132,4.132,0,0,1-1.2-1,8.5,8.5,0,0,1-1.542-2.93,6.046,6.046,0,0,1,.54-4.858,9.572,9.572,0,0,1,.617-1h-.077a14.837,14.837,0,0,1-.5-2.12c-.015-.095-.028-.2-.038-.309a9,9,0,0,1,1,.192q.925.155,2,.386l2.314-7.711q4.871-.242,8.329-9.716a.221.221,0,0,1,.077.153,42.959,42.959,0,0,1-.695,16.194,106.57,106.57,0,0,1-4.009,12.723Zm-5.861-8.483a2.234,2.234,0,0,0,.308-1.465,2.07,2.07,0,0,0-2.236,1.156,8.921,8.921,0,0,0-.155,2.159q0,.678.038,1.157a3.526,3.526,0,0,0,.116,1,3.231,3.231,0,0,0,1.928,1.928,2.829,2.829,0,0,0,.809-.463,1.767,1.767,0,0,0,.27-.308.555.555,0,0,1-.039-.077q-.241-.378-.848-1.312c-.08-.148-.17-.3-.271-.462a3.184,3.184,0,0,1-.462-1.466A4.3,4.3,0,0,1,1077.043,3421.82Zm111.816,8.868q.385-1.08.693-2.159a4.687,4.687,0,0,1,3.663,1.658,5.845,5.845,0,0,1,.732.964,10.947,10.947,0,0,1,1.08,3.393,8.448,8.448,0,0,0-.54.848,30.247,30.247,0,0,0-2.39,6.169,45.7,45.7,0,0,0-6.863,13.187,23.375,23.375,0,0,1-4.4-2.391,13.438,13.438,0,0,0-2.584-1.079,16.13,16.13,0,0,0-4.819-.694,12.571,12.571,0,0,0-8.791,3.393v.039a2.32,2.32,0,0,0-.232.192q-.076-.42-.154-.887a49.447,49.447,0,0,1-.231-8.289,62.389,62.389,0,0,0-.116-7.326,20.707,20.707,0,0,0-.5-3.084,6.553,6.553,0,0,1,.848-5.4,3.636,3.636,0,0,1,1.851-1.7v.077q0,.885.077,1.812a41.182,41.182,0,0,0,1.927,9.677q3.162,9.948,9.177,9.948a6.81,6.81,0,0,0,4.2-1.5,15.184,15.184,0,0,0,3.97-5.051q.439-.8.849-1.7,2.776-8.25,2.776-8.4A5.893,5.893,0,0,0,1188.859,3430.688Z" transform="translate(-996.78 -3223.15)" fill="#feb37c" fill-rule="evenodd"/><path d="M1156.4,3771.636l.308,1.349v.077q.447,2.423.771,4.9.2,1.524.347,3.046a59.292,59.292,0,0,1-1.041-7.172,6.713,6.713,0,0,0-.771-1.465,2.449,2.449,0,0,1,.154-.231A5.3,5.3,0,0,1,1156.4,3771.636Z" transform="translate(-1033.111 -3385.545)" fill="#f4aa92" fill-rule="evenodd"/><path d="M968.989,3575.528q-.669-.185-1.35-.424a3.607,3.607,0,0,1-3.162-2.7q-.617-1.541-1.156-3.085-40.87-42.873-17.813-101.865,10.327-16.39,20.358-10.989-14.639,3.729-16.425,26.334a73.565,73.565,0,0,0-.231,7.711,65.346,65.346,0,0,0,1.465,13.341q.463,2.158,1.157,4.473,1.773,5.089,7.094,16.424,1.312,2.622,2.313,5.089,3.084,6.863,4.7,11.414a5.4,5.4,0,0,0,.308,1.31,134.021,134.021,0,0,1,3.239,23.519A62.674,62.674,0,0,1,968.989,3575.528Z" transform="translate(-937.192 -3246.809)" fill="#187f47" fill-rule="evenodd"/><path d="M1013.756,3462.938a44.666,44.666,0,0,0-4.627-.347h-.153l.308-.077a17.822,17.822,0,0,1,2.7-.54Z" transform="translate(-968.657 -3249.81)" fill="#187f47" fill-rule="evenodd"/><path d="M1098.056,3523.469a22.019,22.019,0,0,0-6.709-1.812q-11.491-1.388-16.888,9.561-6.556,10.411-2.468,20.667a8.075,8.075,0,0,0,2.313,3.315,50.293,50.293,0,0,0,19.818,11.336,31.682,31.682,0,0,1,12.724,6.246q.8.594,1.581,1.195.237,2.126.5,4.589.074.569.154,1.156.152,1.285.308,2.7l2.006,17.89q1.146,10.464,1.889,16.387.061.461.115.886c.052.309.1.643.154,1q.195,1.511.385,2.969,1.031,7.215,2.313,13.3.54,2.929.848,5.784.1.836.193,1.658.173,1.991.232,3.932.019,1.658-.039,3.278v.076a10.5,10.5,0,0,1-.077,1.311v.656q-.034.415-.076.81v.308a15.183,15.183,0,0,1-2.083,6.4c-.055.09-.106.18-.154.27a5.3,5.3,0,0,0-.231.5,2.535,2.535,0,0,0-.154.231c-.107.126-.21.254-.308.386a19.751,19.751,0,0,1-1.619,2.158l-.617.617-.078.078q-.617.616-1.157,1.079a35.973,35.973,0,0,1-10.641,6.478,42.314,42.314,0,0,1-5.475,1.774q-1.619.385-2.93.771-4.319.926-7.326,1.542a2.556,2.556,0,0,0-.617.077q-1,.155-1.928.309h-.077a49.052,49.052,0,0,1-12.569.077,85.993,85.993,0,0,1-2.7-9.871q-1.157-5.4-2.082-11.952-.54-3.778-.617-5.012a3.183,3.183,0,0,1-.077-.54,50.863,50.863,0,0,1,1.465-13.031,41.78,41.78,0,0,1,3.316-8.406q.771-1.7,1.466-3.239,1.156-2.854,1.773-4.936a45.431,45.431,0,0,0,1.542-12.568,33.308,33.308,0,0,0-1.312-9.562q-.616-2.005-2.775-7.171-1.345-3.124-2.468-6.479-1.258-3.787-2.237-7.866-.926-3.546-1.542-7.248-.693-3.855-1.079-7.711a76.007,76.007,0,0,1,.462-16.733q1.619-12.338,10.411-19.818a26.531,26.531,0,0,1,14.844-6.517,25.362,25.362,0,0,1,4.28-.038,4.7,4.7,0,0,1-2-1.119q.465.012.925.04c-.033-.062-.071-.126-.116-.193a23.292,23.292,0,0,1,1.966,1.888,21.729,21.729,0,0,1,1.928,1.851.068.068,0,0,0,.078.077l.386.54.076.077Z" transform="translate(-991.804 -3273.25)" fill="#187f47" fill-rule="evenodd"/><path d="M994,3469.8a4.857,4.857,0,0,0-.347,1.31,11.989,11.989,0,0,0,1.851,6.477,34.548,34.548,0,0,0,4.241,5.4,33.894,33.894,0,0,0,13.418,7.942,70.251,70.251,0,0,0,15.423,3.084q3.007.387,10.718.617,5.008.07,17.853.848-.809.089-1.62.193-30.953,3.744-49.006-3.741-15.269-6.477-15.268-16.27a7.443,7.443,0,0,1,.076-1.08A8.2,8.2,0,0,1,994,3469.8Z" transform="translate(-960.894 -3253.24)" fill="#187f47" fill-rule="evenodd"/><path d="M983.712,3658.438q.54,1.542,1.156,3.085a3.607,3.607,0,0,0,3.162,2.7q.68.24,1.35.424-.314,2.725-.81,5.9-.188,1.17-.385,2.39-.639-1.405-1.388-3.084Q983.634,3663.142,983.712,3658.438Z" transform="translate(-957.582 -3335.926)" fill="#eee0fc" fill-rule="evenodd"/><path d="M1017.762,3455.776a2.739,2.739,0,0,1,.463-.849.068.068,0,0,1,.077-.077,4.076,4.076,0,0,0,.771-1.08,2.925,2.925,0,0,0,.771,2.931,26.934,26.934,0,0,0,8.868,5.4,20.539,20.539,0,0,0,10.179,1.079q1.618-.231,6.323-.771a6.3,6.3,0,0,0,3.624-1.85q-.511-.642-.964-1.2-.388-.432-.732-.81-6.17-7.248-11.953-8.173-.458-.229-.887-.463a25,25,0,0,1-3.663-2.274,11.932,11.932,0,0,0,5.167-2.2q1.7-1.157,3.162-2a8.225,8.225,0,0,0,2.853-2.93q1.928-3.548,3.932-7.249a3.806,3.806,0,0,1,3.9-2.121c.013.064.026.129.038.193a.865.865,0,0,1,.038.116,14.829,14.829,0,0,0,.5,2.12h.077a9.572,9.572,0,0,0-.617,1,6.045,6.045,0,0,0-.54,4.858,8.5,8.5,0,0,0,1.542,2.93,4.131,4.131,0,0,0,1.2,1,2.515,2.515,0,0,0,.385.193,5.957,5.957,0,0,0,3.625.656,9.267,9.267,0,0,0,2.738-.771v.076a9.754,9.754,0,0,1-2,2.391,5.943,5.943,0,0,1-4.974,1.657l-.5.347a19.255,19.255,0,0,0-.539,10.179l-.039.077q.093.239.193.54v.077q.151.59.309,1.156a14.046,14.046,0,0,1,.231,2.237,6.629,6.629,0,0,1-3.547,1.774,18.249,18.249,0,0,1-5.938.463q-3.239-.154-6.632-.385a31.133,31.133,0,0,1-6.786-1.08,22.714,22.714,0,0,1-5.706-2.313,15.127,15.127,0,0,1-3.162-2.313q-.771-1-1.234-1.619A1.759,1.759,0,0,1,1017.762,3455.776Z" transform="translate(-972.509 -3236.286)" fill="#ed8a55" fill-rule="evenodd"/><path d="M1034.108,4118.192a10.3,10.3,0,0,0,.309,1.542l.694.771a2.044,2.044,0,0,0,.694.462,10.313,10.313,0,0,0,3.624,1.7,26.887,26.887,0,0,0,4.048.617c.06.315.124.6.193.848l-.54.231a31.435,31.435,0,0,1-.077,5.784v.078a29.219,29.219,0,0,1-3.778-.541,12.067,12.067,0,0,1-5.244-2.7,32.528,32.528,0,0,1-.617-5.629A6.681,6.681,0,0,1,1034.108,4118.192Zm54.327-16.888q-.981-.436-2.159-1.041.339-.4.656-.809a21.362,21.362,0,0,0,3.162-5.938,12.2,12.2,0,0,1,.231,2.236,9.6,9.6,0,0,1-1.387,4.781Q1088.7,4100.932,1088.435,4101.3Z" transform="translate(-979.37 -3526.635)" fill="#200b0a" fill-rule="evenodd"/><path d="M1097.059,3813.963q-.387,2.908-.926,5.861-.748,3.93-1.774,7.942-.479,1.809-1,3.625-.393,1.151-.771,2.313-2.293,6.6-4.781,13.378-.957,2.639-1.966,5.321-1.7,4.6-3.508,9.292-1,2.583-1.851,5.2-1.621,4.877-2.776,9.832a107.86,107.86,0,0,0-2.391,16.117l-.694,9.331-.424,5.745-.116,1.426v.309q-1.157,16.733-1.157,33.313v.269q.01,3.734.27,7.249.306,3.823.925,7.4.225,1.343.5,2.66l-.385.772a39.518,39.518,0,0,1-3.162,4.7q-8.867,11.337-24.368,11.336a21.849,21.849,0,0,1-5.167-.617l-.154-.077a3.147,3.147,0,0,1-.386-.155q1.632-11.552,2.777-20.165,2.7-20.253,2.7-24.1,0-5.012-2.314-16.656t-2.313-17.5a21.141,21.141,0,0,1,1.619-5.089q3.393-8.252,3.548-8.791,5.166-13.649,5.166-22.825,0-7.711-1.851-24.522a241.4,241.4,0,0,1-1.928-24.213,84.763,84.763,0,0,1,1.735-17.466,36.545,36.545,0,0,0,5.359-.348q13.88-2.39,21.438-8.559a34.062,34.062,0,0,0,3.162-2.544,35.978,35.978,0,0,0,10.641-6.478q.54-.462,1.157-1.079l.078-.078.617-.617a19.767,19.767,0,0,0,1.619-2.158c.1-.132.2-.26.308-.386a6.712,6.712,0,0,1,.771,1.465,59.318,59.318,0,0,0,1.041,7.172c.026.144.051.285.078.424.01.095.022.186.038.27a52.309,52.309,0,0,1,.848,7.75v.116a95.583,95.583,0,0,1,.5,15.885q-.13,2.252-.348,4.55c-.01.1-.023.2-.038.309Q1097.257,3812.407,1097.059,3813.963ZM1036.6,3970.887a16.679,16.679,0,0,1-5.09.231q-1.789-8.026-4.511-22.71-1.356-7.44-2.969-16.617-.56-3.31-1.079-6.4-7.249-42.809-7.249-42.952a53.44,53.44,0,0,1,1-9.639q1.467-6.555,2.313-10.333a145.6,145.6,0,0,0,3.317-31q0-1.078-.926-17.889t-.926-17.891a55.908,55.908,0,0,1,2.584-16.5q2.846,1.533,5.513,2.777,1.148.535,2.275,1.04.325.483.617.926-1.094.318-2.275.655,1.157,6.863,3.007,9.484a21.877,21.877,0,0,0,3.625,4.01q1.7,1.465,3.7,3.084a7.913,7.913,0,0,1,1.233,3.933,249.162,249.162,0,0,0,1.311,36.628q2.467,16.964-1.7,29.919a96.605,96.605,0,0,0-5.09,22.748,63.5,63.5,0,0,0,.308,16.271q1.08,6.323,1.928,18.584a94.856,94.856,0,0,1-.694,17.427q-.232,4.549-1,12.183A39.662,39.662,0,0,0,1036.6,3970.887Z" transform="translate(-971.606 -3386.116)" fill="#1f2633" stroke="#1f2633" stroke-width="1" fill-rule="evenodd"/><path d="M1013.057,3776.1q.3.167.617.347a55.908,55.908,0,0,0-2.584,16.5q0,1.078.926,17.891t.926,17.889a145.6,145.6,0,0,1-3.317,31q-.847,3.778-2.313,10.333a53.434,53.434,0,0,0-1,9.639q0,.144,7.249,42.952.519,3.089,1.079,6.4,1.612,9.177,2.969,16.617,2.722,14.685,4.511,22.71l-2.005-.309a9.877,9.877,0,0,1-1.851-.848,6.931,6.931,0,0,1-1.272-.963,5.555,5.555,0,0,1-1.658-2.661l-.077-.077-1.234-3.7q-1.248-3.89-2.121-7.943-.508-2.481-.886-5.012-.848-5.476-2.391-11.875-1.465-5.553-2.776-12.185l-2.7-13.185q-2.453-8.5-4.164-14.614-.494-1.781-.926-3.354-.294-1.083-.539-2.159a41.978,41.978,0,0,1-1.08-11.336,88.56,88.56,0,0,1,.848-10.333q.617-3.932,2.931-12.646,2.314-8.791,3.547-15.654-.1-1.345-.193-2.583-.606-8.056-.809-11.605-.051-.871-.078-1.465-.2-2.154-.539-4.782-.7-5.592-2.006-13.34c-.022-.125-.047-.254-.076-.385q-.727-4.174-1.273-7.441-1.286-7.513-1.658-10.218-.386-2.468-1.311-6.4l-.116-.5-1.35-5.822q-.05-1.064-.077-2.121-.036-2.416.115-4.743.046-.717.116-1.426a32.722,32.722,0,0,0,3.624,4.665,15.867,15.867,0,0,0,5.4,3.624,16.719,16.719,0,0,0,7.48,1.234Q1011.755,3776.217,1013.057,3776.1Zm18.546,197.677q-2.635-1.129-4.318-5.359c-.025-.06-.051-.124-.076-.193a.137.137,0,0,1,0-.077,39.659,39.659,0,0,1-.771-12.03q.77-7.634,1-12.183a94.855,94.855,0,0,0,.694-17.427q-.847-12.262-1.928-18.584a63.5,63.5,0,0,1-.308-16.27,96.6,96.6,0,0,1,5.09-22.748q4.165-12.955,1.7-29.919a249.162,249.162,0,0,1-1.311-36.628,7.913,7.913,0,0,0-1.233-3.933q-2.005-1.618-3.7-3.084a21.87,21.87,0,0,1-3.625-4.011q-1.851-2.621-3.007-9.484,1.18-.338,2.275-.655.656.954,1.2,1.657a24.774,24.774,0,0,0,6.092,6.323,20.7,20.7,0,0,0,11.374,3.277,84.769,84.769,0,0,0-1.735,17.465,241.4,241.4,0,0,0,1.928,24.214q1.85,16.811,1.851,24.522,0,9.176-5.166,22.825-.155.54-3.548,8.791a21.138,21.138,0,0,0-1.619,5.089q0,5.86,2.313,17.5t2.313,16.656q0,3.844-2.7,24.1Q1033.233,3962.227,1031.6,3973.778Z" transform="translate(-962.212 -3383.378)" fill="#1d222c" stroke="#1f2633" stroke-width="1" fill-rule="evenodd"/><path d="M1050.576,4146.71v-.077a31.423,31.423,0,0,0,.077-5.783l.54-.231v.077a4.2,4.2,0,0,0,2.544,2.853,20.786,20.786,0,0,0,5.822,1.581,32.185,32.185,0,0,0,6.44.116q1.233-.077,2.7-.308a37.785,37.785,0,0,0,5.012-.848l4.627-.85a24.208,24.208,0,0,0,4.164-.54.692.692,0,0,0,.309-.077q3.624-.231,7.943-.462,2.361-.034,4.434-.116,5.726-.172,9.215-.616.977-.127,1.774-.271a42.782,42.782,0,0,0,4.434-.81c.353-.086.7-.177,1.042-.27q1.039-.286,2.043-.617a27.3,27.3,0,0,0,9.6-5.475,6.832,6.832,0,0,0,2-2.853,8.937,8.937,0,0,1,.386,1.389,8.184,8.184,0,0,1-.462,3.392q-5.707,7.019-19.125,8.946a82.169,82.169,0,0,1-14.343,1.156,86.8,86.8,0,0,0-14.343,1.233l-1,3.547a102.792,102.792,0,0,1-11.567,1.774,26.446,26.446,0,0,1-11.49-1.62Q1050.757,4150.036,1050.576,4146.71Z" transform="translate(-986.892 -3543.125)" fill="#181a1b" fill-rule="evenodd"/><path d="M1039.393,3788.267a20.694,20.694,0,0,1-11.374-3.277,24.767,24.767,0,0,1-6.092-6.323q-.538-.7-1.2-1.657-.292-.442-.617-.926a70.157,70.157,0,0,0,17.7,5.206,2.548,2.548,0,0,0,.617.077,49.051,49.051,0,0,0,12.569-.077h.077q.927-.154,1.928-.309a2.545,2.545,0,0,1,.617-.077q3.007-.616,7.326-1.542,1.31-.385,2.93-.771a42.347,42.347,0,0,0,5.475-1.774,34.03,34.03,0,0,1-3.162,2.544q-7.557,6.169-21.438,8.559A36.514,36.514,0,0,1,1039.393,3788.267Zm-27.685-16.348q-1.3.117-2.043.116a16.719,16.719,0,0,1-7.48-1.233,15.872,15.872,0,0,1-5.4-3.625,32.722,32.722,0,0,1-3.624-4.665c-.131-.19-.259-.383-.386-.579a17.154,17.154,0,0,1-1.581-4.781q.6.7,1.272,1.388a39.493,39.493,0,0,0,3.47,3.161q1.619,1.311,3.779,2.853,1.62,1.08,3.316,2.159Q1007.567,3769.634,1011.708,3771.918Z" transform="translate(-960.864 -3379.196)" fill="#464853" fill-rule="evenodd"/><path d="M1024.124,3563.177q-1.345-3.124-2.468-6.479-1.258-3.787-2.237-7.865-.926-3.546-1.542-7.248-.693-3.855-1.079-7.711a76.006,76.006,0,0,1,.462-16.733q1.619-12.339,10.41-19.818a26.53,26.53,0,0,1,14.845-6.517,25.335,25.335,0,0,1,4.28-.038,4.7,4.7,0,0,1-2.005-1.119q-1-.071-1.966-.115-.809.089-1.62.193-30.953,3.744-49.006-3.741-15.269-6.477-15.268-16.271a7.434,7.434,0,0,1,.076-1.08,8.206,8.206,0,0,1,2.661-4.78,5.618,5.618,0,0,1,2.43-2.622,10.513,10.513,0,0,1,4.781-1.157l.308-.077a17.791,17.791,0,0,1,2.7-.54l-.694-.463a36.09,36.09,0,0,0-5.784-2.7,27.093,27.093,0,0,0-8.174.656q-14.638,3.729-16.425,26.333a73.552,73.552,0,0,0-.231,7.711,65.342,65.342,0,0,0,1.465,13.341q.463,2.158,1.157,4.473,1.773,5.089,7.094,16.424,1.312,2.622,2.313,5.089,3.084,6.863,4.7,11.414a5.4,5.4,0,0,0,.308,1.31,134.015,134.015,0,0,1,3.239,23.519,62.663,62.663,0,0,1-.5,9.446q-.314,2.725-.81,5.9-.188,1.17-.385,2.39-.428,2.468-.926,5.205-.3,1.517-.617,3.124-1.388,6.786-2,12.338a65.89,65.89,0,0,0-.231,13.726,16.837,16.837,0,0,0,3.509,6.555q.6.7,1.272,1.388a39.377,39.377,0,0,0,3.47,3.161q1.62,1.311,3.779,2.853,1.62,1.08,3.316,2.16,4.533,2.92,8.675,5.2.3.167.617.347,2.847,1.533,5.514,2.777,1.148.535,2.275,1.04a70.156,70.156,0,0,0,17.7,5.206,2.547,2.547,0,0,0,.617.077,85.962,85.962,0,0,1-2.7-9.871q-1.157-5.4-2.082-11.952-.54-3.777-.617-5.012a3.176,3.176,0,0,1-.078-.54,50.856,50.856,0,0,1,1.465-13.031,41.765,41.765,0,0,1,3.316-8.406q.771-1.7,1.465-3.239,1.157-2.854,1.773-4.936a45.429,45.429,0,0,0,1.542-12.568,33.309,33.309,0,0,0-1.312-9.563Q1026.283,3568.343,1024.124,3563.177Z" transform="translate(-946.559 -3247.296)" fill="#26de81"/><path d="M1172.646,3527.3a13.891,13.891,0,0,0-3.932.386q-.233-.308-1.157.462-.925,2.469-2.93,7.017-.752,1.586-1.774,3.625-2.847,5.7-7.788,14.96-2.463,4.741-4.241,8.251-.549-.415-1.08-.848-5.239-4.383-10.526-8.714-.659-.539-1.311-1.08-2.443-1.986-4.9-3.97-6.072-4.908-12.223-9.755-5.2-4.113-10.449-8.174a22.728,22.728,0,0,0-2.39-1.273,22.022,22.022,0,0,0-6.709-1.811q-11.491-1.389-16.888,9.561a17,17,0,0,1,5.861,4.01,159.387,159.387,0,0,0,23.751,18.661q1.554,1.015,3.123,2,13.488,8.663,27.337,16.232,6.712,3.653,13.495,7.056.351.146.694.27a13.871,13.871,0,0,0,13.187-1.735,6.076,6.076,0,0,1-3.162-8.946,66.994,66.994,0,0,0,1.851-9.254,66.7,66.7,0,0,1,2.313-11.258q.308-1.388,1.851-7.634a71.971,71.971,0,0,1,2.621-8.1q.448-1.271,3.084-8.559c.048-.155.1-.309.155-.463A38.316,38.316,0,0,0,1172.646,3527.3Z" transform="translate(-1001.697 -3277.972)" fill="#26de81"/><path d="M1039.65,3329.038q-.077.464-1.311,1.388a4.152,4.152,0,0,1-2.082,1.08,43.365,43.365,0,0,1-4.627-.232,1.709,1.709,0,0,1,.617-.231l2-.541a1.484,1.484,0,0,1,.463-.077Zm11.876-1.773q.462-.308,0,.309a7.186,7.186,0,0,0-.695.925,11.19,11.19,0,0,1-2.39,1q.772-1.156-.232-3.624a19.286,19.286,0,0,1-.694-2.93q.154-.155.231-.155Zm10.641,5.167a6.085,6.085,0,0,1-2.622.848.628.628,0,0,1-.462-.155v-.462q0-2.005-.309-5.86a23.428,23.428,0,0,1,.463-5.476h.231a.068.068,0,0,1,.077-.076,11.179,11.179,0,0,1,2.16,5.32Z" transform="translate(-978.587 -3188.125)" fill="#471908" fill-rule="evenodd"/><path d="M986.229,3383.231a33.318,33.318,0,0,0,8.1.926h1q15.238-.426,32.7-13.109a41.527,41.527,0,0,0,8.406-7.942q1.465,1.387,2.853,2.544a5.184,5.184,0,0,1,1.619,3.315,25.117,25.117,0,0,1,0,3.933,9.516,9.516,0,0,0-10.256-.771,21.987,21.987,0,0,0-4.318,2.776q-2.776,2.237-5.321,4.4a38.639,38.639,0,0,1-12.647,7.479,13.655,13.655,0,0,1-3.162.849,39.5,39.5,0,0,1-8.559-.309,41.912,41.912,0,0,1-6.247-1.388q-1.465-.464-2.93-.771Q986.769,3384.157,986.229,3383.231Zm24.291-51.9a43.433,43.433,0,0,0,4.627.231,4.155,4.155,0,0,0,2.082-1.079q1.234-.925,1.311-1.388,1.234-.925,3.393-2.854a21.963,21.963,0,0,1,4.473-3.238,19.3,19.3,0,0,0,.694,2.93q1,2.466.232,3.624a11.2,11.2,0,0,0,2.39-1,7.141,7.141,0,0,1,.695-.924q.462-.619,0-.309,3.623-3.469,3.624-3.547a10.334,10.334,0,0,1,4.087-2.391,23.426,23.426,0,0,0-.463,5.476q.309,3.855.309,5.86v.462a.628.628,0,0,0,.462.154,6.079,6.079,0,0,0,2.622-.848h.077l4.088-.926a14.833,14.833,0,0,0-4.088,8.637q-.639,3.983-1.388,6.94a21.229,21.229,0,0,1-2.7,6.94,69.144,69.144,0,0,1-10.989,12.338q-.872.718-1.735,1.388a47.786,47.786,0,0,1-30.268,10.719h-.115a21.047,21.047,0,0,1-10.179-2.16,1.719,1.719,0,0,1,.077.54,25.813,25.813,0,0,1,.078-9.1,53.955,53.955,0,0,1,4.549-12.955,70.272,70.272,0,0,1,5.63-7.789q1.388-1.773,6.169-7.326a8.812,8.812,0,0,1,2.622-2.081l2.853-1.774a15.937,15.937,0,0,0,2-2.082,15.9,15.9,0,0,1,2.159-2.082A4.056,4.056,0,0,1,1010.52,3331.334Z" transform="translate(-957.478 -3188.185)" fill="#595e68" fill-rule="evenodd"/><path d="M1015.836,3407.485a12.876,12.876,0,0,1-3.161.115l-3.7-.617a2.329,2.329,0,0,1-1.156-.154q-2.158-.77-4.087-1.619-.19-.092-.385-.193-2.349-1.139-4.7-2.352a26.614,26.614,0,0,1-10.95-9.562q1.465.308,2.93.771a41.975,41.975,0,0,0,6.247,1.388,39.511,39.511,0,0,0,8.559.309,13.656,13.656,0,0,0,3.162-.849,38.644,38.644,0,0,0,12.647-7.479q2.544-2.16,5.321-4.4a21.987,21.987,0,0,1,4.318-2.776,9.516,9.516,0,0,1,10.256.771l-.926,3.008-2.314,7.711q-1.079-.231-2-.386a8.946,8.946,0,0,0-1-.193h-.038a3.806,3.806,0,0,0-3.9,2.121q-2,3.7-3.932,7.249a8.222,8.222,0,0,1-2.853,2.93q-1.466.847-3.162,2A11.928,11.928,0,0,1,1015.836,3407.485Zm20.821-36.435a41.531,41.531,0,0,1-8.406,7.942q-17.458,12.684-32.7,13.109h-1a33.33,33.33,0,0,1-8.1-.926.218.218,0,0,1-.078-.155q-.463-.847-.848-1.619a.312.312,0,0,1-.078-.231.249.249,0,0,1-.154-.233l-1.234-4.087a1.72,1.72,0,0,0-.077-.54,21.044,21.044,0,0,0,10.179,2.16h.115a47.784,47.784,0,0,0,30.268-10.719q.864-.67,1.735-1.388a69.129,69.129,0,0,0,10.989-12.338,21.237,21.237,0,0,0,2.7-6.94q.749-2.957,1.388-6.94a14.831,14.831,0,0,1,4.088-8.637l.539,3.394a8.187,8.187,0,0,1-.308,3.316q-.463,1.156-1.08,2.93a7.809,7.809,0,0,0-.54,3.624,21.574,21.574,0,0,1-.231,5.243c-.055.4-.107.783-.155,1.156q-.391,2.492-.771,4.01a13.1,13.1,0,0,1-2.93,4.241Q1037.428,3370.2,1036.657,3371.049Z" transform="translate(-957.704 -3196.129)" fill="#454b56" fill-rule="evenodd"/><path d="M1011.186,3468.153a.325.325,0,0,0,.077.038,5.985,5.985,0,0,1,1.08,1.35,21.616,21.616,0,0,1,1.233,1.812q.19.318.385.656a1.757,1.757,0,0,0,.54.926q.463.617,1.233,1.62a15.146,15.146,0,0,0,3.162,2.313,22.714,22.714,0,0,0,5.706,2.313,31.162,31.162,0,0,0,6.787,1.08q3.392.23,6.632.385a18.236,18.236,0,0,0,5.938-.463,6.627,6.627,0,0,0,3.547-1.774l6.632,2.237,2.043,5.32.193.54a53.455,53.455,0,0,0-6.4-1q-1.928-.077-3.855-.077-3.47-.077-6.94,0-1.928.078-3.7.077a39.536,39.536,0,0,1-6.863-.771q-2.005-.463-4.01-1a30.055,30.055,0,0,1-6.477-2.776,30.5,30.5,0,0,1-5.783-4.01,18.536,18.536,0,0,1-2.314-2.853,5.941,5.941,0,0,1-.926-2.969,1.97,1.97,0,0,1,0-.424,1.433,1.433,0,0,1,0-.231,3.389,3.389,0,0,1,.462-1.156A8.488,8.488,0,0,1,1011.186,3468.153Zm145.13,32.965q-.195.805-.386,1.735-.848,3.855-1.389,7.017-2.435-5.238-6.632-6.94c-.128-.057-.257-.108-.385-.155a38.349,38.349,0,0,0-7.866-.925,13.88,13.88,0,0,0-3.932.386q1.309-3.008,2.621-6.246.606-1.388,1.118-2.506.584-1.32,1.041-2.276,11.1-3.47,17.273,5.167A22.064,22.064,0,0,0,1156.316,3501.118Z" transform="translate(-968.708 -3252.518)" fill="#e8effd" fill-rule="evenodd"/><path d="M1126.389,3588.709q-5.648-4.292-11.221-8.444-.784-.6-1.581-1.195a31.689,31.689,0,0,0-12.724-6.246,50.3,50.3,0,0,1-19.818-11.336,8.075,8.075,0,0,1-2.313-3.316q-4.087-10.256,2.468-20.667a16.994,16.994,0,0,1,5.861,4.01,159.378,159.378,0,0,0,23.751,18.661q1.554,1.015,3.123,2.005,13.488,8.663,27.337,16.232,6.712,3.652,13.495,7.056.351.146.694.271a13.872,13.872,0,0,0,13.187-1.735,6.076,6.076,0,0,1-3.162-8.946,66.972,66.972,0,0,0,1.851-9.254,66.7,66.7,0,0,1,2.313-11.258q.308-1.388,1.851-7.634a71.973,71.973,0,0,1,2.621-8.1q.448-1.272,3.084-8.559c.048-.155.1-.31.155-.463.128.047.257.1.385.155q4.2,1.7,6.632,6.94l.309.54q-1.157,5.938-2.005,10.179a55.952,55.952,0,0,0-.925,10.255,77.771,77.771,0,0,1-.849,10.95,57.737,57.737,0,0,1-1.7,7.556q-.54,1.774-1.08,3.625a.493.493,0,0,1-.309.385,40.861,40.861,0,0,1-2.853,6.4,30.771,30.771,0,0,1-2.391,3.779,25.475,25.475,0,0,1-9.023,7.711,20.17,20.17,0,0,1-3.933,2.7,8.237,8.237,0,0,1-5.4,1c-.123-.024-.252-.05-.385-.078a47.572,47.572,0,0,1-22.441-9.407Q1128.892,3590.579,1126.389,3588.709Z" transform="translate(-998.546 -3279.538)" fill="#187f47" fill-rule="evenodd"/><path d="M1055.773,3479.562l-6.632-2.237a14.013,14.013,0,0,0-.231-2.237q4.55,1.157,6.4,3.625A2.753,2.753,0,0,1,1055.773,3479.562Zm-38.249-13.88h.078a6.806,6.806,0,0,1-.694,3.238,4.079,4.079,0,0,1-.771,1.079.068.068,0,0,0-.077.077,2.752,2.752,0,0,0-.463.849q-.2-.338-.385-.656a21.528,21.528,0,0,0-1.233-1.811,5.968,5.968,0,0,0-1.08-1.35.335.335,0,0,1-.077-.038A19.409,19.409,0,0,1,1017.524,3465.682Z" transform="translate(-970.342 -3251.435)" fill="#a5cfd8" fill-rule="evenodd"/><path d="M1407.82,3092.112" transform="translate(-1143.484 -3087.687)" fill="#454b56" fill-rule="evenodd"/></g><g transform="translate(880.837 1363.157)"><g transform="translate(7.368 8.501)"><g style="isolation:isolate"><g transform="translate(36.789 21.24)"><path d="M550.58,285.131l-.12,42.277-36.55,21.241.12-42.278Z" transform="translate(-513.911 -285.131)" fill="url(#j)"/></g><g transform="translate(0 21.241)"><path d="M542.218,306.371l-.12,42.278-36.789-21.24.12-42.277Z" transform="translate(-505.309 -285.131)" fill="url(#j)"/></g><g transform="translate(0.12)"><path d="M578.676,301.4l-36.549,21.24L505.337,301.4l36.55-21.241Z" transform="translate(-505.337 -280.164)" fill="#fff"/></g></g></g></g></g></svg>
