<?xml version="1.0" encoding="UTF-8" standalone="no"?>
<!-- Uploaded to: SVG Repo, www.svgrepo.com, Generator: SVG Repo Mixer Tools -->

<svg
   width="800px"
   height="800px"
   viewBox="0 0 45 45"
   fill="none"
   version="1.1"
   id="svg17"
   xmlns="http://www.w3.org/2000/svg"
   xmlns:svg="http://www.w3.org/2000/svg">
  <g
     clip-path="url(#clip0_2_1369)"
     id="g17"
     style="display:inline;fill:#0ac18e;fill-opacity:1">
    <g
       id="g23"
       style="fill:#0ac18e;fill-opacity:1">
      <path
         d="M 29.502687,17.099202 C 29.338359,12.800399 25.654798,9.1089502 18.704409,5.9065392 L 17.676377,5.4424657 16.648345,5.9065392 C 9.5362589,9.1838835 5.8448089,12.972614 5.8448089,17.40025 v 1.314618 l 2.629238,-0.0013 h 2.6292371 13.146186 2.629238 l 2.629237,0.0013 V 17.40025 Z"
         fill="#3c3c3c"
         id="path2094"
         style="display:inline;fill:#0ac18e;fill-opacity:1;stroke-width:1.31462" />
      <path
         d="M 25.564089,25.665374 H 9.7807779 V 17.780291 H 25.564089 Z"
         stroke="#3c3c3c"
         stroke-width="2"
         stroke-linecap="round"
         stroke-linejoin="round"
         id="path2"
         style="display:inline;fill:#0ac18e;fill-opacity:1;stroke:#0ac18e;stroke-opacity:1" />
    </g>
    <g
       id="g22"
       style="display:inline;fill:#0ac18e;fill-opacity:1">
      <path
         d="m 36.677875,10.142357 c 0.494297,1.832578 0.717782,3.857091 0.717782,6.32463 0,3.084095 -0.786142,6.155045 -2.343965,9.202331 l -2.997331,-0.0013 c 1.814174,-3.093298 2.712059,-6.156359 2.712059,-9.201016 0,-2.530641 -0.249778,-4.486793 -0.797974,-6.232607 1.208135,-2.3124139 2.112592,-2.3124139 2.709429,-0.09202 z"
         fill="#3c3c3c"
         id="path4"
         style="fill:#0ac18e;fill-opacity:1;stroke-width:1.31462" />
      <path
         d="m 36.2125,7.3172415 c 2.805396,0.3733517 -1.695858,4.6629525 -2.244054,2.9171385 -1.024088,0.506129 -1.745813,1.530216 -1.824691,2.730463 l -0.0066,0.215598 h -2.629237 c 0,-2.563507 1.630127,-4.744459 3.909676,-5.5674103 -0.195878,-0.9018284 3.132736,-1.0622119 2.794879,-0.2957892 z"
         fill="#3c3c3c"
         id="path5"
         style="fill:#0ac18e;fill-opacity:1;stroke-width:1.31462" />
      <path
         d="m 36.2125,7.3172415 c 2.805396,0.3733517 4.987663,2.7120585 5.12044,5.5845005 l 0.0066,0.278699 h -2.629237 c 0,-1.371148 -0.838727,-2.545102 -2.032401,-3.038084 C 35.828631,9.5205424 35.154232,9.1747976 33.417621,7.6130307 33.221743,6.7112023 36.550357,6.5508188 36.2125,7.3172415 Z"
         fill="#3c3c3c"
         id="path6"
         style="fill:#0ac18e;fill-opacity:1;stroke-width:1.31462" />
      <path
         d="M 36.2125,7.3172415 C 35.960093,7.4355572 34.517957,8.0021578 33.417621,7.6130307 33.221743,6.7112023 32.171362,5.9500381 30.822564,5.9500381 c -1.425047,0 -2.514866,0.8492437 -2.62135,1.8181176 l -0.0079,0.1538104 h -2.629237 c 0,-2.5990011 2.401808,-4.6011653 5.258475,-4.6011653 1.553879,0 2.973667,0.5928931 3.94517,1.5512501 0.970189,-0.9596717 1.782623,1.6787679 1.444766,2.4451906 z"
         fill="#3c3c3c"
         id="path7"
         style="fill:#0ac18e;fill-opacity:1;stroke-width:1.31462" />
      <path
         d="m 38.710276,3.3208008 c 2.764643,0 5.103349,1.8746462 5.250586,4.3513877 l 0.0079,0.2497776 h -2.629237 c 0,-1.030661 -1.129258,-1.971928 -2.629237,-1.971928 -1.197618,0 -2.159919,0.6007807 -2.497776,1.3672034 -0.115686,0.1787881 -1.142404,0.1906197 -2.794879,0.2957892 -0.195878,-0.9018284 0.37861,-3.6993368 1.350113,-2.7409798 0.970189,-0.9596717 2.388662,-1.5512501 3.942542,-1.5512501 z"
         fill="#3c3c3c"
         id="path8"
         style="fill:#0ac18e;fill-opacity:1;stroke-width:1.31462" />
    </g>
    <mask
       id="mask0_2_1369"
       maskUnits="userSpaceOnUse"
       x="-17"
       y="-18"
       width="80"
       height="81">
      <path
         d="m 63,-17.5 h -80 v 80 h 80 z"
         fill="#f2ddbb"
         id="path9" />
    </mask>
    <g
       mask="url(#mask0_2_1369)"
       id="g12"
       transform="matrix(1.3146186,0,0,1.3146186,-5.3294492,-7.1961488)"
       style="display:inline;fill:#0ac18e;fill-opacity:1">
      <path
         d="m 31.556,28 c 1.119,0.001 2.201,0.411 3.016,1.176 0.39,0.365 0.901,0.584 1.444,0.628 l 0.206,0.008 v 2 c -1.119,0 -2.201,-0.411 -3.017,-1.176 C 32.767,30.225 32.175,30 31.556,30 c -0.62,0 -1.212,0.225 -1.65,0.636 -0.816,0.765 -1.898,1.176 -3.017,1.176 -1.039,0 -2.047,-0.354 -2.838,-1.017 L 23.872,30.636 C 23.433,30.225 22.842,30 22.222,30 c -0.62,0 -1.211,0.225 -1.649,0.636 -0.816,0.765 -1.899,1.176 -3.018,1.176 -1.119,0 -2.201,-0.411 -3.017,-1.176 C 14.1,30.225 13.509,30 12.889,30 c -0.62,0 -1.211,0.225 -1.65,0.636 -0.758,0.71 -1.74501,1.116 -2.77801,1.17 l -0.23901,0.006 v -2 c 0.551,0 1.07901,-0.178 1.49801,-0.506 l 0.15199,-0.13 C 10.688,28.411 11.77,28.001 12.889,28 c 1.119,0.001 2.201,0.411 3.017,1.176 0.438,0.411 1.029,0.636 1.649,0.636 0.62,0 1.211,-0.224 1.65,-0.636 0.816,-0.764 1.898,-1.175 3.017,-1.176 1.119,0.001 2.201,0.411 3.017,1.176 0.439,0.411 1.03,0.636 1.65,0.636 0.62,0 1.211,-0.225 1.649,-0.636 0.816,-0.765 1.898,-1.175 3.018,-1.176 z"
         fill="#3c3c3c"
         id="path10"
         style="fill:#0ac18e;fill-opacity:1" />
      <path
         d="m 59.209,28 c 1.119,0.001 2.201,0.411 3.016,1.176 0.39,0.365 0.901,0.584 1.444,0.628 l 0.206,0.008 v 2 c -1.119,0 -2.201,-0.411 -3.017,-1.176 C 60.42,30.225 59.828,30 59.209,30 c -0.62,0 -1.212,0.225 -1.65,0.636 -0.816,0.765 -1.898,1.176 -3.017,1.176 -1.039,0 -2.047,-0.354 -2.838,-1.017 L 51.525,30.636 C 51.086,30.225 50.495,30 49.875,30 c -0.62,0 -1.211,0.225 -1.649,0.636 -0.816,0.765 -1.899,1.176 -3.018,1.176 -1.119,0 -2.201,-0.411 -3.017,-1.176 C 41.753,30.225 41.162,30 40.542,30 c -0.62,0 -1.211,0.225 -1.65,0.636 -0.758,0.71 -1.745,1.116 -2.778,1.17 l -0.239,0.006 v -2 c 0.551,0 1.079,-0.178 1.498,-0.506 l 0.152,-0.13 c 0.816,-0.765 1.898,-1.175 3.017,-1.176 1.119,0.001 2.201,0.411 3.017,1.176 0.438,0.411 1.029,0.636 1.649,0.636 0.62,0 1.211,-0.224 1.65,-0.636 0.816,-0.764 1.898,-1.175 3.017,-1.176 1.119,0.001 2.201,0.411 3.017,1.176 0.439,0.411 1.03,0.636 1.65,0.636 0.62,0 1.211,-0.225 1.649,-0.636 0.816,-0.765 1.898,-1.175 3.018,-1.176 z"
         fill="#3c3c3c"
         id="path11"
         style="fill:#0ac18e;fill-opacity:1" />
      <path
         d="m 3.709,28 c 1.119,0.001 2.201,0.411 3.016,1.176 0.39,0.365 0.901,0.584 1.444,0.628 l 0.206,0.008 v 2 C 7.256,31.812 6.174,31.401 5.358,30.636 4.92,30.225 4.328,30 3.709,30 c -0.62,0 -1.212,0.225 -1.65,0.636 -0.816,0.765 -1.898001,1.176 -3.017,1.176 -1.039,0 -2.047,-0.354 -2.838,-1.017 L -3.975,30.636 C -4.414,30.225 -5.005,30 -5.625,30 c -0.62,0 -1.211,0.225 -1.649,0.636 -0.816,0.765 -1.899,1.176 -3.018,1.176 -1.119,0 -2.201,-0.411 -3.017,-1.176 C -13.747,30.225 -14.338,30 -14.958,30 c -0.62,0 -1.211,0.225 -1.65,0.636 -0.758,0.71 -1.745,1.116 -2.778,1.17 l -0.239,0.006 v -2 c 0.551,0 1.079,-0.178 1.498,-0.506 l 0.152,-0.13 c 0.816,-0.765 1.898,-1.175 3.017,-1.176 1.119,0.001 2.201,0.411 3.017,1.176 0.438,0.411 1.029,0.636 1.649,0.636 0.62,0 1.211,-0.224 1.65,-0.636 0.816,-0.764 1.898,-1.175 3.017,-1.176 1.119,0.001 2.201,0.411 3.017,1.176 0.439,0.411 1.03,0.636 1.65,0.636 0.620001,0 1.211,-0.225 1.649,-0.636 C 1.507,28.411 2.589,28.001 3.709,28 Z"
         fill="#3c3c3c"
         id="path12"
         style="fill:#0ac18e;fill-opacity:1" />
    </g>
    <mask
       id="mask1_2_1369"
       maskUnits="userSpaceOnUse"
       x="-17"
       y="-18"
       width="80"
       height="81">
      <path
         d="m 63,-17.5 h -80 v 80 h 80 z"
         fill="#f2ddbb"
         id="path13" />
    </mask>
    <g
       mask="url(#mask1_2_1369)"
       id="g16"
       transform="matrix(1.3146186,0,0,1.3146186,-5.3294492,-7.1961488)"
       style="display:inline;fill:#0ac18e;fill-opacity:1">
      <path
         d="m 31.556,33 c 1.119,10e-4 2.201,0.411 3.016,1.176 0.39,0.365 0.901,0.584 1.444,0.628 l 0.206,0.008 v 2 c -1.119,0 -2.201,-0.411 -3.017,-1.176 C 32.767,35.225 32.175,35 31.556,35 c -0.62,0 -1.212,0.225 -1.65,0.636 -0.816,0.765 -1.898,1.176 -3.017,1.176 -1.039,0 -2.047,-0.354 -2.838,-1.017 L 23.872,35.636 C 23.433,35.225 22.842,35 22.222,35 c -0.62,0 -1.211,0.225 -1.649,0.636 -0.816,0.765 -1.899,1.176 -3.018,1.176 -1.119,0 -2.201,-0.411 -3.017,-1.176 C 14.1,35.225 13.509,35 12.889,35 c -0.62,0 -1.211,0.225 -1.65,0.636 -0.758,0.71 -1.74501,1.116 -2.77801,1.17 l -0.23901,0.006 v -2 c 0.551,0 1.07901,-0.178 1.49801,-0.506 l 0.15199,-0.13 C 10.688,33.411 11.77,33.001 12.889,33 c 1.119,10e-4 2.201,0.411 3.017,1.176 0.438,0.411 1.029,0.636 1.649,0.636 0.62,0 1.211,-0.224 1.65,-0.636 0.816,-0.764 1.898,-1.175 3.017,-1.176 1.119,10e-4 2.201,0.411 3.017,1.176 0.439,0.411 1.03,0.636 1.65,0.636 0.62,0 1.211,-0.225 1.649,-0.636 0.816,-0.765 1.898,-1.175 3.018,-1.176 z"
         fill="#3c3c3c"
         id="path14"
         style="fill:#0ac18e;fill-opacity:1" />
      <path
         d="m 59.209,33 c 1.119,10e-4 2.201,0.411 3.016,1.176 0.39,0.365 0.901,0.584 1.444,0.628 l 0.206,0.008 v 2 c -1.119,0 -2.201,-0.411 -3.017,-1.176 C 60.42,35.225 59.828,35 59.209,35 c -0.62,0 -1.212,0.225 -1.65,0.636 -0.816,0.765 -1.898,1.176 -3.017,1.176 -1.039,0 -2.047,-0.354 -2.838,-1.017 L 51.525,35.636 C 51.086,35.225 50.495,35 49.875,35 c -0.62,0 -1.211,0.225 -1.649,0.636 -0.816,0.765 -1.899,1.176 -3.018,1.176 -1.119,0 -2.201,-0.411 -3.017,-1.176 C 41.753,35.225 41.162,35 40.542,35 c -0.62,0 -1.211,0.225 -1.65,0.636 -0.758,0.71 -1.745,1.116 -2.778,1.17 l -0.239,0.006 v -2 c 0.551,0 1.079,-0.178 1.498,-0.506 l 0.152,-0.13 c 0.816,-0.765 1.898,-1.175 3.017,-1.176 1.119,10e-4 2.201,0.411 3.017,1.176 0.438,0.411 1.029,0.636 1.649,0.636 0.62,0 1.211,-0.224 1.65,-0.636 0.816,-0.764 1.898,-1.175 3.017,-1.176 1.119,10e-4 2.201,0.411 3.017,1.176 0.439,0.411 1.03,0.636 1.65,0.636 0.62,0 1.211,-0.225 1.649,-0.636 0.816,-0.765 1.898,-1.175 3.018,-1.176 z"
         fill="#3c3c3c"
         id="path15"
         style="fill:#0ac18e;fill-opacity:1" />
      <path
         d="m 3.709,33 c 1.119,10e-4 2.201,0.411 3.016,1.176 0.39,0.365 0.901,0.584 1.444,0.628 l 0.206,0.008 v 2 C 7.256,36.812 6.174,36.401 5.358,35.636 4.92,35.225 4.328,35 3.709,35 c -0.62,0 -1.212,0.225 -1.65,0.636 -0.816,0.765 -1.898001,1.176 -3.017,1.176 -1.039,0 -2.047,-0.354 -2.838,-1.017 L -3.975,35.636 C -4.414,35.225 -5.005,35 -5.625,35 c -0.62,0 -1.211,0.225 -1.649,0.636 -0.816,0.765 -1.899,1.176 -3.018,1.176 -1.119,0 -2.201,-0.411 -3.017,-1.176 C -13.747,35.225 -14.338,35 -14.958,35 c -0.62,0 -1.211,0.225 -1.65,0.636 -0.758,0.71 -1.745,1.116 -2.778,1.17 l -0.239,0.006 v -2 c 0.551,0 1.079,-0.178 1.498,-0.506 l 0.152,-0.13 c 0.816,-0.765 1.898,-1.175 3.017,-1.176 1.119,10e-4 2.201,0.411 3.017,1.176 0.438,0.411 1.029,0.636 1.649,0.636 0.62,0 1.211,-0.224 1.65,-0.636 0.816,-0.764 1.898,-1.175 3.017,-1.176 1.119,10e-4 2.201,0.411 3.017,1.176 0.439,0.411 1.03,0.636 1.65,0.636 0.620001,0 1.211,-0.225 1.649,-0.636 C 1.507,33.411 2.589,33.001 3.709,33 Z"
         fill="#3c3c3c"
         id="path16"
         style="fill:#0ac18e;fill-opacity:1" />
    </g>
  </g>
  <defs
     id="defs17">
    <clipPath
       id="clip0_2_1369">
      <rect
         width="45"
         height="45"
         fill="white"
         id="rect17" />
    </clipPath>
  </defs>
  <path
     id="symbol_1_"
     class="st1"
     d="m 20.453518,14.463763 c -0.478593,-1.085294 -1.57839,-1.31734 -2.924734,-1.092545 l -0.432665,-1.677492 -1.020032,0.263468 0.425417,1.672657 c -0.268302,0.06768 -0.543857,0.125697 -0.816992,0.20304 l -0.425417,-1.662989 -1.020029,0.263467 0.432667,1.677492 c -0.219961,0.06285 -2.059399,0.534188 -2.059399,0.534188 l 0.280387,1.092544 c 0,0 0.749311,-0.210292 0.742061,-0.193371 0.415746,-0.108764 0.611534,0.09911 0.703386,0.29489 l 1.18923,4.59739 c 0.01449,0.132939 -0.0097,0.360154 -0.29489,0.437501 0.01692,0.0097 -0.742061,0.190953 -0.742061,0.190953 l 0.111181,1.27383 c 0,0 1.822518,-0.466507 2.061816,-0.526934 l 0.437501,1.696828 1.020031,-0.263467 -0.437503,-1.708915 c 0.280389,-0.06527 0.553524,-0.13294 0.819409,-0.20304 l 0.435084,1.699246 1.020031,-0.263466 -0.4375,-1.694413 c 1.571136,-0.381906 2.680601,-1.372932 2.453391,-2.888475 -0.145029,-0.913677 -1.143305,-1.66299 -1.972382,-1.747588 0.510015,-0.452004 0.768648,-1.111882 0.452004,-1.974799 z m -0.490679,4.000357 c 0.20304,1.50104 -1.882947,1.684744 -2.57183,1.866028 l -0.59945,-2.245519 c 0.6913,-0.181284 2.828047,-0.942681 3.17128,0.379491 z M 18.70593,15.406444 c 0.215123,1.33426 -1.568721,1.488956 -2.143999,1.6364 l -0.546273,-2.037645 c 0.577696,-0.14261 2.252771,-0.83391 2.690272,0.401245 z"
     style="fill:#ffffff;stroke-width:0.0241713" />
</svg>
