<svg enable-background="new 0 0 1000 185" viewBox="0 0 1000 185" xmlns="http://www.w3.org/2000/svg"><g fill="#012335"><path d="m230.87 135.92c1.71 2.36 1.5 4.93-.65 6.86-7.5 6.43-17.37 10.29-29.16 10.29-26.81 0-42.46-14.58-42.46-42.46v-27.02c0-27.88 15.23-42.25 41.82-42.25 11.58 0 21.01 3 27.66 8.36 2.36 1.72 2.57 4.29.64 6.86l-6 8.36c-1.93 2.57-4.08 2.57-6.86.64-3.65-2.57-8.15-4.07-13.94-4.07-13.08 0-19.94 7.29-19.94 24.02v23.38c0 16.73 7.29 24.02 21.01 24.02 5.79 0 10.72-1.93 15.23-5.79 2.57-2.14 4.94-2.14 6.86.64z"/><path d="m324.79 83.81v28.52c0 26.16-14.8 40.75-42.03 40.75-25.95 0-39.89-12.01-39.89-33.88 0-20.8 13.51-32.6 38.6-32.6h19.94v-1.07c0-16.94-6.65-24.02-21.44-24.02-6.86 0-13.51 2.79-18.87 6.86-2.57 1.93-4.93 1.72-6.86-1.07l-5.79-9.01c-1.72-2.57-1.5-4.93 1.07-6.86 9.65-6.86 20.16-10.08 32.59-10.08 27.45 0 42.68 14.36 42.68 42.46zm-23.37 26.59v-6.43h-16.73c-11.58 0-18.44 5.15-18.44 14.58 0 9.44 6.01 14.37 16.51 14.37 12.87 0 18.66-7.3 18.66-22.52z"/><path d="m381.19 153.07c-17.16 0-29.17-3.43-38.82-11.37-2.36-1.93-2.57-4.29-1.07-6.86l5.79-8.79c1.71-2.79 4.07-3 6.65-1.07 7.29 5.15 16.08 8.15 24.66 8.15 11.15 0 17.37-4.72 17.37-12.87 0-7.08-4.72-10.51-19.94-12.87-25.09-3.86-34.09-13.72-34.09-33.24 0-19.73 15.44-32.81 39.03-32.81 12.22 0 23.59 3 31.74 8.36 2.57 1.72 2.78 4.07 1.29 6.86l-5.36 8.58c-1.72 2.79-3.86 3-6.65 1.29-5.36-3.43-11.79-5.15-18.44-5.15-11.79 0-18.23 4.5-18.23 12.87 0 6.65 4.5 9.65 19.08 11.79 25.31 3.65 34.74 13.94 34.74 34.31-.01 20.17-14.59 32.82-37.75 32.82z"/><path d="m518.21 81.45v64.12c0 3.22-1.71 4.93-4.93 4.93h-13.51c-3.22 0-4.94-1.72-4.94-4.93v-62.62c0-14.58-5.57-21.45-17.58-21.45-11.79 0-17.59 7.29-17.59 21.45v62.62c0 3.22-1.71 4.93-4.93 4.93h-13.51c-3.22 0-4.93-1.72-4.93-4.93v-140.25c0-3.22 1.71-4.93 4.93-4.93h13.51c3.22 0 4.93 1.72 4.93 4.93v44.18h.43c5.15-5.58 12.65-8.15 22.3-8.15 23.17 0 35.82 13.93 35.82 40.1z"/><path d="m578.47 153.07c-16.51 0-28.95-4.72-37.32-14.37-.86-1.07-.86-1.93 0-2.79l.86-.86c1.07-1.07 1.93-.86 2.78 0 7.51 8.79 18.87 13.3 33.67 13.3 18.66 0 29.38-9.22 29.38-25.09 0-14.58-7.94-21.23-31.96-24.23-25.3-3.22-33.24-10.72-33.24-26.59 0-18.23 13.72-29.59 35.6-29.59 11.58 0 22.52 3.86 30.24 10.72.86.86 1.29 1.72.21 2.79l-.86.86c-1.08 1.07-1.93.86-2.79 0-6.44-6.22-15.87-9.65-26.81-9.65-19.51 0-30.67 9.01-30.67 25.09 0 13.08 7.29 18.87 30.02 21.87 17.15 2.36 35.17 5.36 35.17 28.95.03 18.23-13.27 29.59-34.28 29.59z"/><path d="m701.99 136.56c.86.86.86 1.72 0 2.79-8.58 9.22-18.87 13.72-31.31 13.72-24.45 0-37.53-13.72-37.53-39.89v-30.66c0-26.16 12.87-39.67 37.1-39.67 12.87 0 22.73 3.86 30.02 11.79.86 1.07.86 1.93 0 2.79l-.86.86c-1.07 1.07-1.93.86-2.79 0-6.64-7.51-14.8-10.72-26.38-10.72-21.87 0-31.95 11.58-31.95 37.1v26.59c0 25.52 10.51 37.1 32.81 37.1 10.72 0 19.3-3.86 27.24-12.65.86-.86 1.71-1.07 2.78 0z"/><path d="m725.57 78.23c0-23.16 10.94-35.38 32.17-35.38 9.22 0 17.37 2.79 23.38 7.72 1.07.86 1.07 1.72.21 2.79l-.64.86c-.86 1.07-1.71 1.07-2.79.21-5.15-4.5-12.22-6.86-20.16-6.86-18.87 0-27.02 9.86-27.02 32.81v68.2c0 1.29-.64 1.93-1.93 1.93h-1.29c-1.29 0-1.93-.64-1.93-1.93z"/><path d="m801.27 15.83c0-3 2.36-5.36 5.36-5.36s5.36 2.36 5.36 5.36-2.36 5.36-5.36 5.36-5.36-2.36-5.36-5.36zm6 29.59c1.29 0 1.93.64 1.93 1.93v101.22c0 1.29-.64 1.93-1.93 1.93h-1.29c-1.29 0-1.93-.64-1.93-1.93v-101.22c0-1.29.64-1.93 1.93-1.93z"/><path d="m918.14 82.73v30.67c0 26.16-12.87 39.67-37.53 39.67-15.87 0-26.81-6.22-32.17-18.44h-.21v48.25c0 1.29-.64 1.93-1.93 1.93h-1.29c-1.29 0-1.93-.64-1.93-1.93v-100.15c0-26.16 12.87-39.89 37.53-39.89 24.66.01 37.53 13.73 37.53 39.89zm-5.15 1.93c0-25.52-10.08-37.1-32.38-37.1s-32.38 11.58-32.38 37.1v26.59c0 24.88 10.72 37.1 32.38 37.1 22.3 0 32.38-11.58 32.38-37.1z"/><path d="m999.63 143.85c.64 1.07.43 1.93-.43 2.57-6 4.5-12.87 6.65-20.16 6.65-17.58 0-27.24-10.29-27.24-28.74v-74.2h-15.87c-1.29 0-1.93-.64-1.93-1.93v-.86c0-1.29.64-1.93 1.93-1.93h15.87v-27.44c0-1.29.65-1.93 1.93-1.93h1.29c1.29 0 1.93.64 1.93 1.93v27.45h37.53c1.29 0 1.93.64 1.93 1.93v.86c0 1.29-.64 1.93-1.93 1.93h-37.53v72.91c0 16.94 7.29 25.31 22.09 25.31 6.01 0 11.37-1.72 17.16-6 1.07-.86 2.14-.64 2.78.43z"/></g><path d="m106.64 127.38-73.23-64.47 72.72-63.1.11 28.6-41.25 35.8 41.54 36.57z" fill="#04ff84"/><path d="m24.48 70.8-8.45 7.16 91.1 79.12v-14.49z" fill="#012335"/><path d="m8.64 85.18-8.64 7.23 107.13 92.47v-14.69z" fill="#04ff84"/></svg>