<?xml version="1.0" standalone="no"?>
<!DOCTYPE svg PUBLIC "-//W3C//DTD SVG 20010904//EN"
 "http://www.w3.org/TR/2001/REC-SVG-20010904/DTD/svg10.dtd">
<svg version="1.0" xmlns="http://www.w3.org/2000/svg"
 width="1262.000000pt" height="1238.000000pt" viewBox="0 0 1262.000000 1238.000000"
 preserveAspectRatio="xMidYMid meet">
<metadata>
Created by potrace 1.16, written by Peter Selinger 2001-2019
</metadata>
<g transform="translate(0.000000,1238.000000) scale(0.100000,-0.100000)"
fill="#000000" stroke="none">
<path d="M6105 12074 c-462 -23 -796 -70 -1185 -165 -1132 -276 -2106 -840
-2915 -1689 -832 -873 -1385 -2011 -1559 -3210 -46 -313 -60 -518 -60 -870 0
-604 70 -1103 234 -1668 230 -798 664 -1595 1210 -2222 117 -134 382 -404 518
-526 970 -876 2191 -1398 3527 -1505 193 -16 697 -16 890 0 799 64 1512 261
2205 607 646 324 1166 710 1673 1242 644 677 1129 1531 1387 2439 239 840 290
1728 150 2593 -282 1731 -1306 3234 -2830 4150 -132 79 -404 220 -580 301
-605 275 -1319 458 -1985 508 -145 11 -571 21 -680 15z m1365 -3266 c0 -12
-1552 -5580 -1557 -5587 -3 -5 -705 229 -716 239 -4 4 336 1241 757 2751 420
1509 769 2764 776 2789 7 25 14 48 16 52 6 10 724 -232 724 -244z m-2774 -883
c136 -150 245 -277 243 -281 -1 -5 -306 -344 -676 -752 -370 -409 -673 -747
-673 -752 0 -5 303 -343 674 -752 371 -408 676 -746 678 -749 1 -4 -116 -138
-261 -299 l-264 -292 -22 23 c-12 13 -154 170 -316 349 -162 179 -579 639
-927 1023 l-632 697 732 808 c403 444 829 914 947 1044 200 221 217 236 233
221 9 -8 128 -138 264 -288z m4155 -400 c348 -385 772 -853 941 -1040 169
-187 308 -342 308 -345 0 -3 -139 -158 -308 -345 -169 -187 -593 -655 -942
-1040 -348 -385 -636 -700 -640 -700 -6 0 -511 552 -524 573 -3 5 300 347 674
758 374 411 680 751 680 754 0 3 -282 316 -626 695 -344 380 -651 718 -681
752 l-54 62 263 290 c145 160 266 289 269 288 3 -1 291 -317 640 -702z"/>
</g>
</svg>
