<svg enable-background="new 0 0 1000 185" viewBox="0 0 1000 185" xmlns="http://www.w3.org/2000/svg"><g fill="#fff"><path d="m230.92 135.91c1.71 2.36 1.5 4.93-.65 6.86-7.5 6.43-17.37 10.29-29.16 10.29-26.8 0-42.45-14.58-42.45-42.45v-27.02c0-27.87 15.22-42.24 41.81-42.24 11.58 0 21.01 3 27.66 8.36 2.36 1.72 2.57 4.29.64 6.86l-6 8.36c-1.93 2.57-4.08 2.57-6.86.64-3.65-2.57-8.15-4.07-13.94-4.07-13.08 0-19.94 7.29-19.94 24.01v23.37c0 16.72 7.29 24.01 21.01 24.01 5.79 0 10.72-1.93 15.22-5.79 2.57-2.14 4.93-2.14 6.86.64z"/><path d="m324.82 83.81v28.52c0 26.16-14.8 40.74-42.03 40.74-25.94 0-39.88-12.01-39.88-33.88 0-20.8 13.51-32.59 38.59-32.59h19.94v-1.07c0-16.94-6.65-24.01-21.44-24.01-6.86 0-13.51 2.79-18.87 6.86-2.57 1.93-4.93 1.72-6.86-1.07l-5.79-9.01c-1.72-2.57-1.5-4.93 1.07-6.86 9.65-6.86 20.15-10.08 32.59-10.08 27.46-.01 42.68 14.36 42.68 42.45zm-23.37 26.58v-6.43h-16.72c-11.58 0-18.44 5.15-18.44 14.58s6.01 14.37 16.51 14.37c12.86 0 18.65-7.29 18.65-22.52z"/><path d="m381.21 153.06c-17.16 0-29.16-3.43-38.81-11.36-2.36-1.93-2.57-4.29-1.07-6.86l5.79-8.79c1.71-2.79 4.07-3 6.65-1.07 7.29 5.15 16.08 8.15 24.66 8.15 11.15 0 17.37-4.72 17.37-12.86 0-7.08-4.72-10.51-19.94-12.86-25.08-3.86-34.09-13.72-34.09-33.23 0-19.73 15.44-32.8 39.02-32.8 12.22 0 23.59 3 31.73 8.36 2.57 1.72 2.78 4.07 1.29 6.86l-5.36 8.58c-1.72 2.79-3.86 3-6.65 1.29-5.36-3.43-11.79-5.15-18.44-5.15-11.79 0-18.22 4.5-18.22 12.86 0 6.65 4.5 9.65 19.08 11.79 25.3 3.65 34.74 13.94 34.74 34.31-.02 20.13-14.59 32.78-37.75 32.78z"/><path d="m518.21 81.45v64.11c0 3.22-1.71 4.93-4.93 4.93h-13.51c-3.22 0-4.93-1.72-4.93-4.93v-62.61c0-14.58-5.57-21.44-17.58-21.44-11.79 0-17.58 7.29-17.58 21.44v62.61c0 3.22-1.71 4.93-4.93 4.93h-13.51c-3.22 0-4.93-1.72-4.93-4.93v-140.23c0-3.22 1.71-4.93 4.93-4.93h13.51c3.22 0 4.93 1.72 4.93 4.93v44.17h.43c5.14-5.58 12.65-8.15 22.3-8.15 23.15 0 35.8 13.94 35.8 40.1z"/><path d="m578.45 153.06c-16.51 0-28.94-4.72-37.31-14.37-.86-1.07-.86-1.93 0-2.79l.86-.86c1.07-1.07 1.93-.86 2.78 0 7.5 8.79 18.87 13.29 33.66 13.29 18.65 0 29.38-9.22 29.38-25.09 0-14.58-7.94-21.23-31.95-24.23-25.3-3.22-33.23-10.72-33.23-26.59 0-18.22 13.72-29.59 35.59-29.59 11.58 0 22.51 3.86 30.23 10.72.86.86 1.29 1.72.21 2.79l-.86.86c-1.08 1.07-1.93.86-2.79 0-6.43-6.22-15.87-9.65-26.8-9.65-19.51 0-30.66 9.01-30.66 25.09 0 13.08 7.29 18.87 30.02 21.87 17.15 2.36 35.16 5.36 35.16 28.95.02 18.24-13.27 29.6-34.29 29.6z"/><path d="m701.95 136.55c.86.86.86 1.72 0 2.79-8.58 9.22-18.87 13.72-31.3 13.72-24.45 0-37.52-13.72-37.52-39.88v-30.66c0-26.16 12.86-39.67 37.09-39.67 12.87 0 22.73 3.86 30.02 11.79.86 1.07.86 1.93 0 2.79l-.86.86c-1.07 1.07-1.93.86-2.79 0-6.64-7.5-14.8-10.72-26.37-10.72-21.87 0-31.95 11.58-31.95 37.09v26.59c0 25.52 10.51 37.09 32.81 37.09 10.72 0 19.3-3.86 27.23-12.65.86-.86 1.71-1.07 2.78 0z"/><path d="m725.53 78.23c0-23.16 10.94-35.38 32.16-35.38 9.22 0 17.37 2.79 23.37 7.72 1.07.86 1.07 1.72.21 2.79l-.64.86c-.86 1.07-1.71 1.07-2.79.21-5.14-4.5-12.22-6.86-20.15-6.86-18.87 0-27.02 9.86-27.02 32.8v68.18c0 1.29-.64 1.93-1.93 1.93h-1.29c-1.28 0-1.93-.64-1.93-1.93v-70.32z"/><path d="m801.22 15.84c0-3 2.36-5.36 5.36-5.36s5.36 2.36 5.36 5.36-2.36 5.36-5.36 5.36-5.36-2.36-5.36-5.36zm6 29.59c1.29 0 1.93.64 1.93 1.93v101.2c0 1.29-.64 1.93-1.93 1.93h-1.29c-1.29 0-1.93-.64-1.93-1.93v-101.2c0-1.29.64-1.93 1.93-1.93z"/><path d="m918.07 82.74v30.66c0 26.16-12.87 39.67-37.52 39.67-15.87 0-26.8-6.22-32.16-18.44h-.21v48.24c0 1.29-.64 1.93-1.93 1.93h-1.28c-1.29 0-1.93-.64-1.93-1.93v-100.13c0-26.16 12.87-39.88 37.52-39.88s37.51 13.72 37.51 39.88zm-5.15 1.93c0-25.52-10.07-37.09-32.38-37.09s-32.38 11.58-32.38 37.09v26.59c0 24.87 10.72 37.09 32.38 37.09 22.3 0 32.38-11.58 32.38-37.09z"/><path d="m999.54 143.84c.64 1.07.43 1.93-.43 2.57-6 4.5-12.86 6.65-20.15 6.65-17.58 0-27.23-10.29-27.23-28.73v-74.18h-15.87c-1.28 0-1.93-.64-1.93-1.93v-.86c0-1.29.64-1.93 1.93-1.93h15.87v-27.45c0-1.29.65-1.93 1.93-1.93h1.29c1.29 0 1.93.64 1.93 1.93v27.44h37.52c1.29 0 1.93.64 1.93 1.93v.86c0 1.29-.64 1.93-1.93 1.93h-37.52v72.9c0 16.94 7.29 25.3 22.08 25.3 6.01 0 11.36-1.72 17.16-6 1.07-.86 2.14-.64 2.78.43z"/></g><path d="m106.71 127.37-73.22-64.46 72.71-63.08.11 28.59-41.25 35.8 41.54 36.56z" fill="#04ff84"/><path d="m24.56 70.81-8.44 7.15 91.07 79.11v-14.49z" fill="#fff"/><path d="m8.72 85.18-8.63 7.23 107.1 92.46v-14.69z" fill="#04ff84"/></svg>
