<svg width="1524" height="1524" viewBox="0 0 1524 1524" fill="none" xmlns="http://www.w3.org/2000/svg">
<rect width="1524" height="1524" rx="762" fill="url(#paint0_linear_6_253)"/>
<path fill-rule="evenodd" clip-rule="evenodd" d="M334.645 1242.45L413.502 767.454H290.568L313.214 630.5H436.239L443.046 589.496H320.068L342.737 452.45H465.798L494.261 281H874.054C946.416 281 1006.58 294.873 1054.02 323.204C1101.67 351.167 1135.22 390.253 1154.35 440.311C1155.91 444.31 1157.38 448.356 1158.75 452.45H1300.95L1278.29 589.496H1170.63C1169.84 596.463 1168.87 603.519 1167.71 610.661L1167.71 610.693C1166.6 617.376 1165.35 623.979 1163.97 630.5H1271.43L1248.79 767.454H1107.24C1104.24 771.947 1101.15 776.379 1097.95 780.751C1062.36 829.573 1016.07 867.647 959.231 894.967C902.266 922.348 836.723 935.92 762.797 935.92H601.96L550.75 1242.45H334.645ZM631.394 759.729H756.795C794.679 759.729 826.503 753.264 852.549 740.684C879.089 727.707 899.99 709.973 915.461 687.503C931.049 664.556 941.263 638.145 946.018 608.132L946.022 608.106L946.026 608.081C951.096 577.362 949.354 551.281 941.334 529.514C933.418 508.028 918.912 491.311 897.382 479.254L897.327 479.223L897.272 479.191C876.154 466.92 847.09 460.423 809.423 460.423H681.396L631.394 759.729Z" fill="white"/>
<defs>
<linearGradient id="paint0_linear_6_253" x1="461.805" y1="-1.26292e-05" x2="1151.13" y2="1524" gradientUnits="userSpaceOnUse">
<stop stop-color="#C336EA"/>
<stop offset="1" stop-color="#683FF9"/>
</linearGradient>
</defs>
</svg>
